<svg width="62" height="51" fill="none" xmlns="http://www.w3.org/2000/svg"><circle cx="40.631" cy="15" r="15" fill="#000"/><path d="M53.068 8.755c0 1.481-.253 2.582-.758 3.302-.506.72-1.297 1.08-2.373 1.08-1.061 0-1.847-.351-2.358-1.053-.51-.706-.775-1.76-.793-3.158V7.237c0-1.463.253-2.55.759-3.26.506-.711 1.299-1.067 2.379-1.067 1.07 0 1.86.344 2.365 1.032.506.684.766 1.741.78 3.172v1.64zm-1.264-1.73c0-1.07-.15-1.85-.452-2.338-.3-.492-.776-.738-1.428-.738-.647 0-1.119.244-1.415.732-.296.487-.45 1.237-.458 2.249v2.023c0 1.076.155 1.87.465 2.386.314.51.788.765 1.422.765.624 0 1.086-.241 1.387-.724.305-.483.465-1.244.479-2.283V7.025zm8.223 2.632h1.381v1.033h-1.38V13h-1.272v-2.31h-4.532v-.746l4.457-6.897h1.346v6.61zm-4.368 0h3.097v-4.88l-.15.273-2.947 4.607z" fill="#A9A9A9"/><path d="M47.927 29.544A3.582 3.582 0 0 0 49 26.98v-1.296a.816.816 0 0 0-.817-.816h-2.292l-15.056-6.023a.817.817 0 1 0-.606 1.516l11.264 4.507H7.822l14.038-5.2a4.073 4.073 0 0 0 3.456 1.933 4.088 4.088 0 0 0 4.083-4.083 4.09 4.09 0 0 0-3.266-4.001v-.982a4.091 4.091 0 0 0 3.266-4V2.816a.816.816 0 1 0-1.633 0v2.47a4.04 4.04 0 0 0-2.45-.837c-.923 0-1.766.32-2.45.838v-2.47a.816.816 0 1 0-1.633 0v5.716a4.091 4.091 0 0 0 3.266 4.001v1.716c0 .452.365.817.817.817 1.35 0 2.45 1.099 2.45 2.45 0 1.35-1.1 2.45-2.45 2.45-.754 0-1.421-.35-1.87-.887l1.858-.688.528.21a.818.818 0 0 0 1.062-.456.816.816 0 0 0-.456-1.06l-.82-.328c-.036-.015-.074-.011-.112-.02-.06-.015-.117-.033-.179-.034-.063 0-.12.016-.181.029-.038.008-.076.004-.114.018l-2.163.8c0-.011-.003-.022-.003-.034a.816.816 0 1 0-1.633 0c0 .211.03.415.062.618L3.121 24.867H.817a.816.816 0 0 0-.817.816v1.298c0 .95.385 1.878 1.056 2.548.372.37.577.866.577 1.392v14.026a1.98 1.98 0 0 1-.58 1.393A3.581 3.581 0 0 0 0 48.886v1.297c0 .452.365.817.817.817h47.366a.816.816 0 0 0 .817-.817v-1.295c0-.946-.383-1.872-1.059-2.549a1.988 1.988 0 0 1-.574-1.39v-14.03c0-.517.198-1.005.56-1.375zM8.167 46.1a.816.816 0 1 1-1.634 0V29.767a.816.816 0 1 1 1.634 0V46.1zm4.9 0a.816.816 0 1 1-1.634 0V29.767a.816.816 0 1 1 1.634 0V46.1zm4.9 0a.816.816 0 1 1-1.634 0V29.767a.816.816 0 1 1 1.634 0V46.1zm4.9 0a.816.816 0 1 1-1.634 0V29.767a.816.816 0 1 1 1.634 0V46.1zm4.9 0a.816.816 0 1 1-1.634 0V29.767a.816.816 0 1 1 1.634 0V46.1zm4.9 0a.816.816 0 1 1-1.634 0V29.767a.816.816 0 1 1 1.634 0V46.1zm4.9 0a.816.816 0 1 1-1.634 0V29.767a.816.816 0 1 1 1.634 0V46.1zm4.9 0a.816.816 0 1 1-1.634 0V29.767a.816.816 0 1 1 1.634 0V46.1z" fill="#F8D465"/></svg>