<svg width="64" height="51" fill="none" xmlns="http://www.w3.org/2000/svg"><circle cx="40.631" cy="15" r="15" fill="#000"/><path d="M15.388 40.933c-1.793 1.657-4.274 2.028-6.474.969a5.898 5.898 0 0 1-1.992-1.546l-2.995 6.626a.56.56 0 0 0 .087.612.56.56 0 0 0 .592.18l2.18-.607a2.779 2.779 0 0 1 3.25 1.47l.985 2.037a.556.556 0 0 0 .526.326.56.56 0 0 0 .518-.339l4.765-10.539c-.524.15-1.02.42-1.442.81zm16.686 6.049l-2.996-6.626a5.897 5.897 0 0 1-1.992 1.546c-2.2 1.059-4.68.688-6.474-.97a3.574 3.574 0 0 0-1.442-.81l4.765 10.54a.56.56 0 0 0 .518.338.556.556 0 0 0 .526-.326l.985-2.038a2.779 2.779 0 0 1 3.25-1.469l2.18.607a.56.56 0 0 0 .592-.18.56.56 0 0 0 .088-.612z" fill="#F8D465"/><path d="M34.426 23.669c-2.487-1.704-3.26-5.086-1.757-7.7.903-1.571.433-3.124-.308-4.054-.74-.929-2.15-1.732-3.883-1.202-2.883.883-6.01-.622-7.117-3.426C20.696 5.6 19.19 5 18 5c-1.188 0-2.696.6-3.361 2.287-1.108 2.804-4.233 4.31-7.116 3.426-1.734-.53-3.143.273-3.884 1.202-.741.93-1.211 2.482-.308 4.054 1.502 2.614.73 5.996-1.757 7.7C.078 24.693-.172 26.296.092 27.454c.264 1.16 1.185 2.495 2.977 2.768 2.981.456 5.144 3.168 4.925 6.175-.132 1.808.965 3.003 2.036 3.519 1.071.515 2.69.628 4.02-.602A5.806 5.806 0 0 1 18 37.779a5.8 5.8 0 0 1 3.949 1.535c1.331 1.23 2.95 1.117 4.02.602 1.072-.516 2.169-1.711 2.037-3.519-.22-3.007 1.944-5.72 4.925-6.175 1.791-.273 2.713-1.609 2.977-2.768.264-1.158.014-2.761-1.482-3.785zM18 35.18c-6.52 0-11.826-5.305-11.826-11.826 0-6.52 5.305-11.825 11.826-11.825 6.521 0 11.826 5.305 11.826 11.825S24.521 35.181 18 35.181z" fill="#F8D465"/><path d="M18 13.735c-5.305 0-9.621 4.316-9.621 9.62 0 5.305 4.316 9.62 9.621 9.62 5.305 0 9.621-4.315 9.621-9.62 0-5.304-4.316-9.62-9.621-9.62zm4.93 8.688l-5.987 4.373a1.102 1.102 0 0 1-1.553-.257l-1.79-2.55a1.103 1.103 0 0 1 1.804-1.267l1.145 1.63 5.081-3.71a1.103 1.103 0 0 1 1.3 1.78z" fill="#F8D465"/><path d="M55.068 10.755c0 1.481-.253 2.582-.758 3.302-.506.72-1.297 1.08-2.373 1.08-1.061 0-1.847-.351-2.358-1.053-.51-.706-.775-1.76-.793-3.158V9.237c0-1.463.253-2.55.759-3.26.506-.711 1.299-1.067 2.379-1.067 1.07 0 1.86.344 2.365 1.032.506.684.766 1.741.78 3.172v1.64zm-1.264-1.73c0-1.07-.15-1.85-.452-2.338-.3-.492-.776-.738-1.428-.738-.647 0-1.119.244-1.415.732-.296.487-.45 1.237-.458 2.249v2.023c0 1.076.155 1.87.465 2.386.314.51.788.765 1.422.765.624 0 1.086-.241 1.387-.724.305-.483.465-1.244.479-2.283V9.025zm9.31-3.267L58.992 15h-1.326l4.108-8.914h-5.386v-1.04h6.726v.712z" fill="#A9A9A9"/></svg>