<svg viewBox="0 0 65 49" fill="none" xmlns="http://www.w3.org/2000/svg"><circle cx="41.631" cy="15" r="15" fill="#000"/><path d="M34.942 9.69h-.873v-.462c0-.678-.573-1.228-1.282-1.228-.707 0-1.28.55-1.28 1.228v.461h-2.354v-.46C29.153 8.55 28.579 8 27.87 8c-.707 0-1.28.55-1.28 1.228v.461h-2.354v-.46c0-.679-.573-1.229-1.282-1.229-.707 0-1.28.55-1.28 1.228v.461H19.32v-.46C19.32 8.55 18.747 8 18.039 8c-.707 0-1.28.55-1.28 1.228v.461h-2.354v-.46C14.405 8.55 13.83 8 13.123 8c-.707 0-1.28.55-1.28 1.228v.461H9.49v-.46C9.49 8.55 8.916 8 8.209 8c-.708 0-1.281.55-1.281 1.228v.461h-.874C2.716 9.69 0 12.293 0 15.495v27.698C0 46.393 2.716 49 6.056 49h28.886C38.282 49 41 46.396 41 43.193V15.495c-.001-3.201-2.717-5.806-6.058-5.806zm-2.793-.462c0-.339.287-.614.641-.614.354 0 .64.275.64.614v7.963a.628.628 0 0 1-.64.615.628.628 0 0 1-.64-.615V9.228zm-4.916 0c0-.339.289-.614.641-.614.354 0 .64.275.64.614v7.963a.628.628 0 0 1-.64.615.629.629 0 0 1-.64-.615V9.228zm-4.916 0c0-.339.287-.614.641-.614.354 0 .64.275.64.614v7.963a.628.628 0 0 1-.64.615.628.628 0 0 1-.64-.615V9.228zm-4.916 0c0-.339.287-.614.641-.614.354 0 .64.275.64.614v7.963a.628.628 0 0 1-.64.615.628.628 0 0 1-.64-.615V9.228zm-4.916 0c0-.339.287-.614.641-.614.354 0 .64.275.64.614v7.963a.628.628 0 0 1-.64.615.628.628 0 0 1-.64-.615V9.228zm-4.916 0c0-.339.287-.614.641-.614.354 0 .64.275.64.614v7.963a.628.628 0 0 1-.64.615.628.628 0 0 1-.64-.615V9.228zm30.345 33.965c0 1.569-1.333 2.846-2.97 2.846H6.056c-1.637 0-2.97-1.277-2.97-2.846V15.495c0-1.57 1.333-2.848 2.97-2.848h.874v3.087a1.875 1.875 0 0 0-.717 1.459c0 1.056.895 1.916 1.998 1.916s1.999-.859 1.999-1.916c0-.588-.283-1.106-.718-1.459v-3.087h2.354v3.087a1.875 1.875 0 0 0-.717 1.459c0 1.056.895 1.916 1.998 1.916s1.999-.859 1.999-1.916c0-.588-.283-1.106-.717-1.459v-3.087h2.353v3.087a1.875 1.875 0 0 0-.717 1.459c0 1.056.895 1.916 1.998 1.916s1.999-.859 1.999-1.916c0-.588-.283-1.106-.718-1.459v-3.087h2.354v3.087a1.875 1.875 0 0 0-.717 1.459c0 1.056.895 1.916 1.998 1.916s2-.859 2-1.916c0-.588-.284-1.106-.718-1.459v-3.087h2.353v3.087a1.875 1.875 0 0 0-.717 1.459c0 1.056.895 1.916 1.998 1.916s1.999-.859 1.999-1.916c0-.588-.283-1.106-.717-1.459v-3.087h2.353v3.087a1.875 1.875 0 0 0-.717 1.459c0 1.056.894 1.916 1.998 1.916 1.105 0 2-.859 2-1.916 0-.588-.283-1.106-.718-1.459v-3.087h.873c1.636 0 2.969 1.278 2.969 2.848l-.001 27.698z" fill="#F8D465"/><path d="M20.547 38.087c.42 0 .795-.064 1.13-.19.334-.129.621-.3.862-.525.24-.225.428-.482.561-.772.132-.29.197-.59.197-.904 0-.728-.238-1.346-.712-1.855-.473-.505-1.16-.758-2.062-.758-.371 0-.713.068-1.024.2a2.48 2.48 0 0 0-.804.558c-.225.24-.4.515-.524.828a2.67 2.67 0 0 0-.187 1.005c0 .67.233 1.24.698 1.71.468.467 1.09.703 1.865.703z" fill="#F8D465"/><path d="M5.766 42.933h29.468v-19.5H5.765v19.5z" fill="#F8D465"/><path d="M56.068 8.755c0 1.481-.253 2.582-.758 3.302-.506.72-1.297 1.08-2.373 1.08-1.061 0-1.847-.351-2.358-1.053-.51-.706-.775-1.76-.793-3.158V7.237c0-1.463.253-2.55.759-3.26.506-.711 1.299-1.067 2.379-1.067 1.07 0 1.86.344 2.365 1.032.506.684.766 1.741.78 3.172v1.64zm-1.264-1.73c0-1.07-.15-1.85-.452-2.338-.3-.492-.776-.738-1.428-.738-.647 0-1.119.244-1.415.732-.296.487-.45 1.237-.458 2.249v2.023c0 1.076.155 1.87.465 2.386.314.51.788.765 1.422.765.624 0 1.086-.241 1.387-.724.305-.483.465-1.244.479-2.283V7.025zm8.92-1.38c0 .496-.132.938-.396 1.326-.26.387-.613.69-1.06.909.52.223.93.549 1.231.977.305.429.458.914.458 1.457 0 .86-.292 1.547-.875 2.057-.579.51-1.342.766-2.29.766-.957 0-1.725-.255-2.304-.766-.574-.515-.861-1.2-.861-2.058 0-.537.146-1.023.438-1.456a2.766 2.766 0 0 1 1.223-.984 2.608 2.608 0 0 1-1.046-.91 2.344 2.344 0 0 1-.383-1.318c0-.839.27-1.504.807-1.997.538-.492 1.246-.738 2.126-.738.875 0 1.581.246 2.12.738.541.493.813 1.158.813 1.997zm-1.032 4.641c0-.556-.177-1.01-.533-1.36-.35-.351-.811-.527-1.38-.527-.57 0-1.028.174-1.375.52-.342.346-.512.802-.512 1.367s.166 1.01.499 1.333c.337.324.804.486 1.401.486.592 0 1.057-.162 1.395-.486.337-.328.505-.772.505-1.333zm-1.9-6.337c-.497 0-.9.155-1.21.465-.305.305-.458.722-.458 1.251 0 .506.15.916.451 1.23.305.31.711.465 1.217.465.506 0 .91-.155 1.21-.464.305-.315.458-.725.458-1.231 0-.506-.157-.918-.472-1.237-.314-.32-.713-.479-1.196-.479z" fill="#A9A9A9"/></svg>