<svg width="64" height="51" fill="none" xmlns="http://www.w3.org/2000/svg"><circle cx="39.631" cy="15" r="15" fill="#000"/><path d="M55.068 8.755c0 1.481-.253 2.582-.758 3.302-.506.72-1.297 1.08-2.373 1.08-1.061 0-1.847-.351-2.358-1.053-.51-.706-.775-1.76-.793-3.158V7.237c0-1.463.253-2.55.759-3.26.506-.711 1.299-1.067 2.379-1.067 1.07 0 1.86.344 2.365 1.032.506.684.766 1.741.78 3.172v1.64zm-1.264-1.73c0-1.07-.15-1.85-.452-2.338-.3-.492-.776-.738-1.428-.738-.647 0-1.119.244-1.415.732-.296.487-.45 1.237-.458 2.249v2.023c0 1.076.155 1.87.465 2.386.314.51.788.765 1.422.765.624 0 1.086-.241 1.387-.724.305-.483.465-1.244.479-2.283V7.025zM60.844 13h-1.27V4.571l-2.55.937V4.359L60.646 3h.198v10z" fill="#A9A9A9"/><path d="M54.083 25.692c-3.045-1.19-6.112-3.618-9.092-3.431-4.083.248-5.69-3.677-7.645-6-1.383-1.633-1.278-5.037-4.37-4.1-2.286.694-5.376.44-6.677 2.21-1.622 2.207-2.91 1.956-4.697 1.77-2.902-.31-5.76-.757-8.604-1.643-2.19-.673-4.524-.853-6.782.214-1.556.744-2.925 1.389-1.446 3.903.895 1.51.782 2.79-.797 3.785-.87.543-1.594 1.621-2.18 2.638-2.517 4.343-2.376 8.5.373 8.79 3.717.387 7.511 2.29 11.276-1.074 2.561-2.294 6.165-.16 7.709 3.491.627 1.485 1.469 2.83 2.366 4.52-3.815-.45-3.727 3.221-4.96 5.62 3.727 1.489 5.441-1.593 7.283-4.15.827-1.144 1.8-2.443 2.79-1.188 1.544 1.963 3.45 1.612 5.295 2.019-.042.437-.192.74-.403.98-.627.71-1.75.82-1.777 2.123.857.92 2.672.688 2.737 2.598.007.272-.018.589-.09.964-.17.886.934 1.488 1.305 1.193 2.567-2.008 5.64-2.557 8.156-5.056-.502-.046-1.013-.195-1.499-.108-1.393.241-2.664.07-3.108-1.826-.438-1.876 1.411-2.592 1.902-2.707 4.291-1.032 7.642-4.514 11.584-6.361 2.988-1.408.371-5.032 2.038-6.957.363-.425.404-1.789-.687-2.217z" fill="#F8D465"/></svg>