<svg width="70" height="49" fill="none" xmlns="http://www.w3.org/2000/svg"><circle cx="45.631" cy="15" r="15" fill="#000"/><path d="M23.143 19.421l-2.9 8.142c-.099.276-.322.466-.58.492L4.83 29.56c-.364.037-.64.395-.63.817l.3 13.46c.01.37.236.685.55.762l17.464 4.246c.427.104.861.155 1.295.154V19.573c0-1.11-.299-1.18-.665-.152zm-2.03 25.102l-6.557-1.22V39.33h6.556v5.193zM18.244 26.12L.762 28.162c-.534.062-.923-.572-.696-1.134l4.656-11.502a.716.716 0 0 1 .501-.447L24.433 11l-5.625 14.65c-.1.261-.316.441-.563.47zm25.926 3.441l-14.835-1.506c-.257-.026-.48-.216-.579-.492l-2.9-8.142c-.366-1.027-.666-.959-.666.152V49c.435.001.869-.05 1.296-.154L43.95 44.6c.314-.077.541-.392.55-.762l.3-13.46c.01-.422-.266-.78-.63-.817zm-6.105 7.19l-.82.026-.016 5.96c0 .263-.231.514-.518.562l-1.343.223c-.307.051-.558-.13-.557-.406l.012-6.261-.937.03c-.456.014-.744-.408-.512-.757l2.229-3.357c.211-.319.73-.29.933.046l1.956 3.223c.185.306-.049.699-.427.711zm10.172-8.59L30.754 26.12c-.247-.029-.461-.209-.562-.471L24.567 11l19.21 4.078c.22.047.407.214.501.448l4.656 11.502c.227.562-.162 1.196-.696 1.134z" fill="#F8D465"/><path d="M61.068 8.755c0 1.481-.253 2.582-.758 3.302-.506.72-1.297 1.08-2.373 1.08-1.061 0-1.847-.351-2.358-1.053-.51-.706-.775-1.76-.793-3.158V7.237c0-1.463.253-2.55.759-3.26.506-.711 1.299-1.067 2.379-1.067 1.07 0 1.86.344 2.365 1.032.506.684.766 1.741.78 3.172v1.64zm-1.264-1.73c0-1.07-.15-1.85-.452-2.338-.3-.492-.776-.738-1.428-.738-.647 0-1.119.244-1.415.732-.296.487-.45 1.237-.458 2.249v2.023c0 1.076.155 1.87.465 2.386.314.51.788.765 1.422.765.624 0 1.086-.241 1.387-.724.305-.483.465-1.244.479-2.283V7.025zm7.731 1.6a3.083 3.083 0 0 1-.95.759 2.549 2.549 0 0 1-1.203.287c-.574 0-1.076-.141-1.504-.424-.424-.282-.752-.679-.984-1.19a4.089 4.089 0 0 1-.35-1.702c0-.665.126-1.264.377-1.797a2.805 2.805 0 0 1 1.08-1.224c.465-.283 1.007-.424 1.627-.424.984 0 1.759.37 2.324 1.108.57.733.855 1.736.855 3.007v.37c0 1.936-.383 3.351-1.149 4.245-.765.888-1.92 1.344-3.466 1.367h-.246V11.94h.267c1.044-.018 1.846-.289 2.406-.813.56-.529.866-1.363.916-2.502zm-1.948 0c.424 0 .813-.13 1.169-.39.36-.26.622-.58.786-.964v-.505c0-.83-.18-1.504-.54-2.024-.36-.52-.816-.78-1.367-.78-.556 0-1.003.215-1.34.643-.337.424-.506.985-.506 1.682 0 .68.162 1.24.485 1.682a1.56 1.56 0 0 0 1.313.656z" fill="#A9A9A9"/></svg>