<svg width="62" height="49" fill="none" xmlns="http://www.w3.org/2000/svg"><circle cx="37.631" cy="15" r="15" fill="#000"/><path d="M1.79 36.986V15.193c0-1.211.977-2.193 2.183-2.193H25.66c1.206 0 2.183.982 2.183 2.193v21.793a.73.73 0 0 1-.727.731H2.517a.73.73 0 0 1-.727-.73zm17.513 7.466c0 2.512-2.028 4.548-4.528 4.548-2.501 0-4.529-2.036-4.529-4.548s2.028-4.548 4.529-4.548c2.5 0 4.528 2.036 4.528 4.548zm-2.264 0a2.27 2.27 0 0 0-2.264-2.274 2.27 2.27 0 0 0-2.265 2.274 2.27 2.27 0 0 0 2.265 2.274 2.27 2.27 0 0 0 2.264-2.274zm-6.164-4.548H.728a.73.73 0 0 0-.728.731v2.218a.73.73 0 0 0 .728.73H8.86a6.006 6.006 0 0 1 2.014-3.679zm32.12 4.548c0 2.512-2.028 4.548-4.528 4.548-2.501 0-4.529-2.036-4.529-4.548s2.028-4.548 4.529-4.548c2.5 0 4.528 2.036 4.528 4.548zm-2.264 0a2.27 2.27 0 0 0-2.264-2.274 2.269 2.269 0 0 0-2.264 2.274 2.27 2.27 0 0 0 2.264 2.274 2.27 2.27 0 0 0 2.264-2.274zM51 40.635v2.218a.73.73 0 0 1-.728.73H44.38c-.421-2.902-2.909-5.14-5.913-5.14-3.005 0-5.493 2.238-5.914 5.14H20.688a6.006 6.006 0 0 0-2.013-3.679h11.25V18.997c0-.807.65-1.462 1.455-1.462h6.87c1.935 0 3.743.966 4.825 2.576l4.43 6.588c.649.967.996 2.106.996 3.273v9.932h1.771a.73.73 0 0 1 .728.731zm-7.383-13.767l-3.541-5.054a.727.727 0 0 0-.596-.31h-5.524a.73.73 0 0 0-.728.73v5.055c0 .404.326.73.728.73h9.066a.73.73 0 0 0 .595-1.15z" fill="#F8D465"/><path d="M53.068 8.755c0 1.481-.253 2.582-.758 3.302-.506.72-1.297 1.08-2.373 1.08-1.061 0-1.847-.351-2.358-1.053-.51-.706-.775-1.76-.793-3.158V7.237c0-1.463.253-2.55.759-3.26.506-.711 1.299-1.067 2.379-1.067 1.07 0 1.86.344 2.365 1.032.506.684.766 1.741.78 3.172v1.64zm-1.264-1.73c0-1.07-.15-1.85-.452-2.338-.3-.492-.776-.738-1.428-.738-.647 0-1.119.244-1.415.732-.296.487-.45 1.237-.458 2.249v2.023c0 1.076.155 1.87.465 2.386.314.51.788.765 1.422.765.624 0 1.086-.241 1.387-.724.305-.483.465-1.244.479-2.283V7.025zM59.65 3.04v1.073h-.232c-.984.019-1.768.31-2.352.875-.583.565-.92 1.36-1.011 2.386.524-.602 1.24-.902 2.146-.902.866 0 1.556.305 2.071.916.52.61.78 1.399.78 2.365 0 1.025-.28 1.846-.841 2.46-.556.616-1.304.924-2.242.924-.953 0-1.725-.365-2.318-1.094-.592-.734-.888-1.677-.888-2.83v-.485c0-1.832.39-3.232 1.169-4.198.784-.97 1.948-1.467 3.493-1.49h.225zm-1.66 4.484c-.434 0-.833.13-1.197.39a2.03 2.03 0 0 0-.759.978v.464c0 .82.185 1.482.554 1.983.369.501.83.752 1.38.752.57 0 1.017-.21 1.34-.63.329-.418.493-.968.493-1.647 0-.683-.167-1.235-.5-1.654-.327-.424-.765-.636-1.312-.636z" fill="#A9A9A9"/></svg>