<svg width="60" height="48" fill="none" xmlns="http://www.w3.org/2000/svg"><circle cx="40.631" cy="15" r="15" fill="#000"/><path d="M51.068 8.755c0 1.481-.253 2.582-.758 3.302-.506.72-1.297 1.08-2.373 1.08-1.061 0-1.847-.351-2.358-1.053-.51-.706-.775-1.76-.793-3.158V7.237c0-1.463.253-2.55.759-3.26.506-.711 1.299-1.067 2.379-1.067 1.07 0 1.86.344 2.365 1.032.506.684.766 1.741.78 3.172v1.64zm-1.264-1.73c0-1.07-.15-1.85-.452-2.338-.3-.492-.776-.738-1.428-.738-.647 0-1.119.244-1.415.732-.296.487-.45 1.237-.458 2.249v2.023c0 1.076.155 1.87.465 2.386.314.51.788.765 1.422.765.624 0 1.086-.241 1.387-.724.305-.483.465-1.244.479-2.283V7.025zm4.723.383h.95c.598-.009 1.067-.166 1.409-.471.341-.306.512-.718.512-1.238 0-1.166-.58-1.75-1.743-1.75-.547 0-.984.157-1.312.472-.324.31-.486.722-.486 1.237h-1.264c0-.788.287-1.442.861-1.962.579-.524 1.313-.786 2.201-.786.94 0 1.675.249 2.208.745.534.497.8 1.187.8 2.072 0 .433-.141.852-.424 1.257a2.517 2.517 0 0 1-1.141.91c.547.173.968.46 1.264.86.301.402.451.892.451 1.47 0 .894-.291 1.602-.875 2.127-.583.524-1.342.786-2.276.786-.934 0-1.695-.253-2.283-.76-.583-.505-.875-1.173-.875-2.002h1.271c0 .524.171.943.513 1.258.342.314.8.472 1.374.472.61 0 1.078-.16 1.401-.479.324-.319.486-.777.486-1.374 0-.579-.178-1.023-.533-1.333-.356-.31-.868-.47-1.538-.479h-.95V7.408z" fill="#A9A9A9"/><path d="M13.834 34.784c0-3.902 5.11-4.526 5.11-6.676 0-.944-.737-1.51-1.661-1.51-1.278 0-1.97 1.282-1.97 1.282l-1.479-.976s1-2.164 3.618-2.164c1.924 0 3.556 1.158 3.556 3.2 0 3.476-4.895 4.07-4.941 6.113h5.11v1.691h-7.25c-.047-.35-.093-.655-.093-.96zm8.457-3.033L27 24.922h2.356v6.402h1.417v1.632h-1.417v2.788h-1.955v-2.788H22.29V31.75zm5.11-.427v-3.352c0-.534.078-1.129.078-1.129h-.031s-.246.579-.54.99l-2.524 3.461v.03h3.018zm9.643-.574l-.38 1.35C34.5 39.766 26.61 44.605 18.805 42.687 11.309 40.845 6.65 33.654 7.77 26.327l2.259.624a.703.703 0 0 0 .874-.847l-2.457-9.47a.709.709 0 0 0-1.178-.326L.213 23.15a.697.697 0 0 0 .304 1.173l2.458.68c-1.834 9.91 4.341 19.782 14.42 22.38 10.464 2.698 21.138-3.715 24.046-14.027l.364-1.29a.698.698 0 0 0-.49-.861l-3.401-.94a.707.707 0 0 0-.87.485zm4.018-5.9l-3.566.458a.7.7 0 0 0-.61.783l.14 1.071a.707.707 0 0 0 .792.604l3.567-.46a.7.7 0 0 0 .61-.783l-.142-1.07a.705.705 0 0 0-.79-.604zm-2.745-6.673l-3.134 1.748a.695.695 0 0 0-.268.952l.535.941a.71.71 0 0 0 .962.266l3.133-1.748c.34-.19.46-.616.269-.952l-.535-.941a.71.71 0 0 0-.962-.266zm-5.07-5.168l-2.244 2.783a.694.694 0 0 0 .111.982l.853.674a.71.71 0 0 0 .992-.11l2.244-2.783a.694.694 0 0 0-.112-.983l-.852-.674a.711.711 0 0 0-.993.11zm-6.657-2.912l-1.028 3.413a.7.7 0 0 0 .475.87l1.046.308c.373.11.767-.1.878-.47l1.027-3.413a.698.698 0 0 0-.474-.87l-1.046-.308a.707.707 0 0 0-.878.47zm-7.274-.23l.339 3.544a.704.704 0 0 0 .77.63l1.085-.101a.701.701 0 0 0 .637-.762l-.339-3.545a.704.704 0 0 0-.77-.63l-1.085.102a.701.701 0 0 0-.637.762zm-6.831 2.483l1.655 3.162a.71.71 0 0 0 .952.298l.969-.497a.696.696 0 0 0 .302-.942l-1.656-3.161a.71.71 0 0 0-.952-.3l-.968.498a.696.696 0 0 0-.302.942z" fill="#F8D465"/></svg>