<svg width="67" height="50" fill="none" xmlns="http://www.w3.org/2000/svg"><circle cx="46.631" cy="17" r="15" fill="#000"/><path d="M58.068 8.755c0 1.481-.253 2.582-.758 3.302-.506.72-1.297 1.08-2.373 1.08-1.061 0-1.847-.351-2.358-1.053-.51-.706-.775-1.76-.793-3.158V7.237c0-1.463.253-2.55.759-3.26.506-.711 1.299-1.067 2.379-1.067 1.07 0 1.86.344 2.365 1.032.506.684.766 1.741.78 3.172v1.64zm-1.264-1.73c0-1.07-.15-1.85-.452-2.338-.3-.492-.776-.738-1.428-.738-.647 0-1.119.244-1.415.732-.296.487-.45 1.237-.458 2.249v2.023c0 1.076.155 1.87.465 2.386.314.51.788.765 1.422.765.624 0 1.086-.241 1.387-.724.305-.483.465-1.244.479-2.283V7.025zm3.465.985l.506-4.963h5.1v1.169h-4.026l-.301 2.714c.487-.287 1.041-.431 1.661-.431.907 0 1.627.3 2.16.902.533.597.8 1.406.8 2.427 0 1.026-.278 1.834-.834 2.427-.551.588-1.324.882-2.317.882-.88 0-1.598-.244-2.154-.732-.556-.487-.872-1.162-.95-2.023h1.196c.078.57.28 1 .609 1.292.328.287.76.43 1.299.43.587 0 1.048-.2 1.38-.601.338-.401.506-.955.506-1.661 0-.666-.182-1.199-.547-1.6-.36-.405-.84-.608-1.442-.608-.551 0-.984.12-1.299.362l-.335.274-1.011-.26z" fill="#A9A9A9"/><path d="M12.9 13.014A6.018 6.018 0 0 1 18.924 7a6.019 6.019 0 0 1 6.024 6.014 6.02 6.02 0 0 1-6.024 6.013c-3.328 0-6.026-2.692-6.026-6.013zm8.92 10.11a6.502 6.502 0 0 1 1.238-3.523 7.698 7.698 0 0 0-1.577-.163h-5.112a7.75 7.75 0 0 0-1.573.161 6.515 6.515 0 0 1 1.243 3.793 6.555 6.555 0 0 1 3.164-.81c.93 0 1.814.194 2.617.542zm1.02.54a6.867 6.867 0 0 1 3.201 5.1 5.546 5.546 0 0 0 7.896-5.016 5.546 5.546 0 0 0-5.55-5.541 5.544 5.544 0 0 0-5.547 5.457zm-3.637 11.345a5.546 5.546 0 0 0 5.55-5.54 5.546 5.546 0 0 0-5.55-5.541 5.547 5.547 0 0 0-5.552 5.54 5.547 5.547 0 0 0 5.552 5.541zm2.355.377h-4.71c-3.919 0-7.108 3.183-7.108 7.095v5.75l.015.09.397.123C13.892 49.61 17.142 50 19.816 50c5.223 0 8.251-1.487 8.438-1.582l.37-.187h.04v-5.75c0-3.912-3.187-7.095-7.106-7.095zm9.184-5.72h-4.674a6.824 6.824 0 0 1-2.111 4.757c3.483 1.034 6.032 4.258 6.032 8.067v1.771c4.614-.17 7.274-1.474 7.449-1.562l.37-.188h.04V36.76c0-3.911-3.188-7.093-7.106-7.093zm1.25-11.577a6.866 6.866 0 0 1 3.2 5.1 5.545 5.545 0 0 0 7.896-5.016c0-3.06-2.484-5.54-5.55-5.54a5.544 5.544 0 0 0-5.546 5.456zm7.901 6.002H35.22a6.822 6.822 0 0 1-2.112 4.757c3.484 1.033 6.033 4.258 6.033 8.067v1.771c4.613-.169 7.273-1.473 7.449-1.562l.37-.188H47v-5.751c0-3.911-3.188-7.094-7.107-7.094zm-30.43 5.197a5.522 5.522 0 0 0 2.952-.855 6.857 6.857 0 0 1 2.583-4.374c.006-.104.015-.206.015-.311 0-3.06-2.486-5.54-5.55-5.54a5.545 5.545 0 0 0-5.55 5.54c0 3.06 2.484 5.54 5.55 5.54zm4.985 5.135a6.83 6.83 0 0 1-2.11-4.73 6.42 6.42 0 0 0-.521-.027h-4.71C3.189 29.666 0 32.85 0 36.761v5.75l.015.09.397.123c3 .936 5.677 1.367 8.004 1.501V42.49c0-3.808 2.548-7.033 6.032-8.066z" fill="#F8D465"/></svg>