<svg width="64" height="51" fill="none" xmlns="http://www.w3.org/2000/svg"><circle cx="40.631" cy="15" r="15" fill="#000"/><path d="M55.068 11.755c0 1.481-.253 2.582-.758 3.302-.506.72-1.297 1.08-2.373 1.08-1.061 0-1.847-.351-2.358-1.053-.51-.706-.775-1.76-.793-3.158v-1.689c0-1.463.253-2.55.759-3.26.506-.711 1.299-1.067 2.379-1.067 1.07 0 1.86.344 2.365 1.032.506.684.766 1.741.78 3.172v1.64zm-1.264-1.73c0-1.07-.15-1.85-.452-2.338-.3-.492-.776-.738-1.428-.738-.647 0-1.119.244-1.415.732-.296.487-.45 1.237-.458 2.249v2.023c0 1.076.155 1.87.465 2.386.314.51.788.765 1.422.765.624 0 1.086-.241 1.387-.724.305-.483.465-1.244.479-2.283v-2.072zM63.21 16h-6.522v-.91l3.446-3.827c.51-.58.861-1.049 1.053-1.409a2.35 2.35 0 0 0 .294-1.127c0-.52-.158-.946-.472-1.279-.315-.332-.734-.499-1.258-.499-.629 0-1.119.18-1.47.54-.346.356-.52.852-.52 1.49h-1.264c0-.916.294-1.656.882-2.221.592-.565 1.383-.848 2.372-.848.925 0 1.657.244 2.194.732.538.483.807 1.128.807 1.934 0 .98-.624 2.147-1.873 3.5l-2.666 2.892h4.997V16z" fill="#A9A9A9"/><path d="M34.167 30.5a.683.683 0 0 0 .683-.683V20.25h5.467a.683.683 0 0 0 .683-.683v-2.734a.641.641 0 0 0-.015-.075.67.67 0 0 0-.03-.145.662.662 0 0 0-.046-.1.655.655 0 0 0-.273-.274.656.656 0 0 0-.108-.048c-.02-.007-.035-.02-.056-.025l-25.966-6.15A.687.687 0 0 0 14.35 10h-2.733a.678.678 0 0 0-.236.048c-.018.007-.036.013-.053.021-.018.008-.032.01-.047.018L.348 16.238a.66.66 0 0 0-.094.077.662.662 0 0 0-.065.052.682.682 0 0 0-.136.2v.01a.68.68 0 0 0-.048.235c0 .008-.005.015-.005.023v2.733c0 .378.306.684.683.684h9.567v12.7l-2.533 2.533a.683.683 0 0 0-.2.483V46.9H6.15V51h13.667v-4.1H18.45V35.967a.683.683 0 0 0-.2-.483l-2.533-2.534v-12.7h13.666v9.567c0 .377.306.683.684.683h1.366v2.05c0 .377.306.683.684.683A1.367 1.367 0 1 1 30.75 34.6v-.683h-1.367v.683a2.725 2.725 0 0 0 1.43 2.388l-5.13 5.129h-1.766a.683.683 0 0 0-.684.683v6.15c0 .377.306.683.684.683h16.4A.683.683 0 0 0 41 48.95V42.8a.683.683 0 0 0-.683-.683H38.55l-5.13-5.13a2.722 2.722 0 0 0-.62-5.034V30.5h1.367zm.683-12.983h4.783v1.366H34.85v-1.366zm4.783 25.966v4.784H24.6v-4.784h15.033zm-3.016-1.366h-9l4.5-4.5 4.5 4.5zM33.483 26.4H30.75v-6.15h2.733v6.15zm0-7.517H30.75v-1.366h2.733v1.366zM12.3 11.367h1.367v4.783H12.3v-4.783zm-.683 6.15h2.733V18.6l-.283.282h-2.45v-1.366zm2.733 3.016v4.9l-2.45-2.45 2.45-2.45zm-2.733-.283H12.7l-1.083 1.084V20.25zm0 4.383l2.45 2.45-2.45 2.45v-4.9zm2.733 4.1v4.9l-2.45-2.45 2.45-2.45zm-2.733 4.5v-.4l2.45 2.45-2.45 2.45v-4.5zm2.733 3.7v4.9l-2.45-2.45 2.45-2.45zm-2.733 4.1l2.45 2.45-2.45 2.45v-4.9zm2.733 4.1V46.9h-1.767l1.767-1.767zm-3.417-33.281v4.298H3.292l7.641-4.298zm-9.566 7.031v-1.366h8.883v1.366H1.367zM8.883 36.25l1.367-1.367V46.9H8.883V36.25zm9.567 12.017v1.366H7.517v-1.366H18.45zM17.083 36.25V46.9h-1.366V34.883l1.366 1.367zm12.3-17.367H15.717v-1.366h13.666v1.366zm-14.35-2.733v-4.603l19.434 4.603H15.033zM30.75 29.133v-1.366h2.733v1.366H30.75z" fill="#F8D465"/></svg>