<svg viewBox="0 0 22 19" fill="none" xmlns="http://www.w3.org/2000/svg"><path d="M21.44 13.044c-.31 0-.56.247-.56.55v2.104c0 1.214-1.005 2.201-2.24 2.201H3.36c-1.235 0-2.24-.987-2.24-2.201v-2.103c0-.304-.25-.55-.56-.55-.31 0-.56.246-.56.55v2.103C0 17.518 1.507 19 3.36 19h15.28c1.853 0 3.36-1.482 3.36-3.302v-2.103c0-.304-.25-.55-.56-.55z" fill="#000"/><path d="M18.04 15.213H3.96c-.31 0-.56.246-.56.55 0 .304.25.55.56.55h14.08c.309 0 .56-.246.56-.55a.555.555 0 0 0-.56-.55zM16.668 7.47a.567.567 0 0 0-.79-.044l-4.318 3.79V.55A.555.555 0 0 0 11 0c-.31 0-.56.246-.56.55v10.667l-4.318-3.79a.567.567 0 0 0-.79.043.544.544 0 0 0 .044.777l4.69 4.118c.267.234.6.35.933.35.334 0 .667-.116.933-.35l4.691-4.118a.543.543 0 0 0 .045-.777z" fill="#000"/></svg>