<svg data-name="Слой 1" xmlns="http://www.w3.org/2000/svg" xmlns:xlink="http://www.w3.org/1999/xlink" viewBox="0 0 451.56 295.94"><defs><linearGradient id="a" x1="-46.03" y1="64.12" x2="431.97" y2="287.12" gradientUnits="userSpaceOnUse"><stop offset="0" stop-color="#ffdb45"/><stop offset=".06" stop-color="#ffd448"/><stop offset=".16" stop-color="#ffbf50"/><stop offset=".27" stop-color="#ff9e5d"/><stop offset=".4" stop-color="#ff706e"/><stop offset=".47" stop-color="#ff5479"/><stop offset=".55" stop-color="#f84f80"/><stop offset=".66" stop-color="#e34192"/><stop offset=".8" stop-color="#c22aaf"/><stop offset=".95" stop-color="#940ad8"/><stop offset="1" stop-color="#8500e5"/></linearGradient><linearGradient id="b" x1="-32.17" y1="34.41" x2="445.83" y2="257.41" xlink:href="#a"/><linearGradient id="c" x1="16.28" y1="-69.45" x2="494.28" y2="153.55" xlink:href="#a"/><linearGradient id="d" x1="-9.99" y1="-13.13" x2="468.01" y2="209.87" xlink:href="#a"/></defs><path fill="url(#a)" d="M217.98 178.03l-8.29 36.56h63.7l-8.44-36.56h-46.97z"/><path fill="url(#b)" d="M161.3 70.03L142.31 0H97.88L79.73 70.03 63.42 0H0l51.61 214.59h47.53l21.52-84.93 23.06 84.93h.64L196.54 0h-19.07L161.3 70.03z"/><path fill="url(#c)" d="M388.56 0l-26.29 44.72L336.11 0h-47.46l49.43 214.31V107.16l24.19 41.48 24.75-41.48v107.43h64.54V0h-63z"/><path fill="url(#d)" d="M241.68 75.23l-12.1 52.46h23.91l-11.81-52.46z"/><path d="M15.22 277.91a5.2 5.2 0 0 1-1.92 4.34 8.72 8.72 0 0 1-5.5 1.52H5.62v7.29H3.46V272.5h4.81q6.95 0 6.95 5.41zm-9.61 4h1.94a7.22 7.22 0 0 0 4.15-.93 3.41 3.41 0 0 0 1.28-3 3.2 3.2 0 0 0-1.21-2.74 6.3 6.3 0 0 0-3.76-.9H5.6zm72.85 1.43v7.72H76.3V272.5h5.09a8 8 0 0 1 5 1.31 4.74 4.74 0 0 1 1.63 3.94 4.93 4.93 0 0 1-3.73 5l5 8.34h-2.55l-4.49-7.72zm0-1.85h3a5.11 5.11 0 0 0 3.35-.91 3.37 3.37 0 0 0 1.07-2.72 3.1 3.1 0 0 0-1.09-2.65 5.88 5.88 0 0 0-3.48-.81H78.5zm87.23.26a10.22 10.22 0 0 1-2.25 7 7.92 7.92 0 0 1-6.27 2.55 8 8 0 0 1-6.33-2.51q-2.23-2.51-2.23-7.08t2.23-7a8.08 8.08 0 0 1 6.35-2.5 7.91 7.91 0 0 1 6.25 2.54 10.21 10.21 0 0 1 2.25 7zm-14.79 0a8.81 8.81 0 0 0 1.61 5.72 6.56 6.56 0 0 0 9.32 0 11.14 11.14 0 0 0 0-11.41 5.62 5.62 0 0 0-4.64-1.94 5.73 5.73 0 0 0-4.69 1.95 8.72 8.72 0 0 0-1.6 5.68zm73.42 14.2a4.26 4.26 0 0 1-1.88-.34v-1.85a6.91 6.91 0 0 0 1.88.25 2.38 2.38 0 0 0 1.91-.76 3.28 3.28 0 0 0 .65-2.2V272.5h2.16v18.38a5.32 5.32 0 0 1-1.22 3.74 4.52 4.52 0 0 1-3.5 1.33zm77.2-4.89h-10.35V272.5h10.35v1.92h-8.19v6h7.69v1.9h-7.69v6.83h8.19zm69.26-16.9a6.07 6.07 0 0 0-4.83 2 8.22 8.22 0 0 0-1.77 5.58 8.38 8.38 0 0 0 1.71 5.63 6.07 6.07 0 0 0 4.87 2 16.65 16.65 0 0 0 4.43-.7v1.89a13.65 13.65 0 0 1-4.76.72 8.06 8.06 0 0 1-6.33-2.49q-2.23-2.49-2.23-7.07a11.15 11.15 0 0 1 1.07-5 7.7 7.7 0 0 1 3.1-3.33 9.38 9.38 0 0 1 4.77-1.17 11.5 11.5 0 0 1 5.1 1.07l-.91 1.85a9.84 9.84 0 0 0-4.22-.98zm71.37 16.9h-2.16v-16.64h-5.88v-1.92h13.91v1.92h-5.88z" fill="#fff"/></svg>