<svg width="60" height="48" viewBox="0 0 60 48" fill="none" xmlns="http://www.w3.org/2000/svg">
<circle cx="40.6309" cy="15" r="15" fill="black"/>
<path d="M51.0684 8.75488C51.0684 10.236 50.8154 11.3366 50.3096 12.0566C49.8037 12.7767 49.013 13.1367 47.9375 13.1367C46.8757 13.1367 46.0895 12.7858 45.5791 12.084C45.0687 11.3776 44.8044 10.3249 44.7861 8.92578V7.2373C44.7861 5.77441 45.0391 4.6875 45.5449 3.97656C46.0508 3.26562 46.8438 2.91016 47.9238 2.91016C48.9948 2.91016 49.7832 3.25423 50.2891 3.94238C50.7949 4.62598 51.0547 5.68327 51.0684 7.11426V8.75488ZM49.8037 7.02539C49.8037 5.95443 49.6533 5.17513 49.3525 4.6875C49.0518 4.19531 48.5755 3.94922 47.9238 3.94922C47.2767 3.94922 46.805 4.19303 46.5088 4.68066C46.2126 5.16829 46.0599 5.91797 46.0508 6.92969V8.95312C46.0508 10.0286 46.2057 10.8239 46.5156 11.3389C46.8301 11.8493 47.304 12.1045 47.9375 12.1045C48.5618 12.1045 49.0244 11.863 49.3252 11.3799C49.6305 10.8968 49.79 10.1357 49.8037 9.09668V7.02539ZM54.5273 7.4082H55.4775C56.0745 7.39909 56.5439 7.24186 56.8857 6.93652C57.2275 6.63118 57.3984 6.21875 57.3984 5.69922C57.3984 4.53255 56.8174 3.94922 55.6553 3.94922C55.1084 3.94922 54.6709 4.10645 54.3428 4.4209C54.0192 4.73079 53.8574 5.14323 53.8574 5.6582H52.5928C52.5928 4.86979 52.8799 4.21582 53.4541 3.69629C54.0329 3.1722 54.7666 2.91016 55.6553 2.91016C56.5941 2.91016 57.3301 3.15853 57.8633 3.65527C58.3965 4.15202 58.6631 4.84245 58.6631 5.72656C58.6631 6.15951 58.5218 6.57878 58.2393 6.98438C57.9613 7.38997 57.5807 7.69303 57.0977 7.89355C57.6445 8.06673 58.0661 8.35384 58.3623 8.75488C58.6631 9.15592 58.8135 9.64583 58.8135 10.2246C58.8135 11.1178 58.5218 11.8265 57.9385 12.3506C57.3551 12.8747 56.5964 13.1367 55.6621 13.1367C54.7279 13.1367 53.9668 12.8838 53.3789 12.3779C52.7956 11.8721 52.5039 11.2044 52.5039 10.375H53.7754C53.7754 10.8991 53.9463 11.3184 54.2881 11.6328C54.6299 11.9473 55.0879 12.1045 55.6621 12.1045C56.2728 12.1045 56.7399 11.945 57.0635 11.626C57.387 11.307 57.5488 10.849 57.5488 10.252C57.5488 9.67318 57.3711 9.22884 57.0156 8.91895C56.6602 8.60905 56.1475 8.44954 55.4775 8.44043H54.5273V7.4082Z" fill="#A9A9A9"/>
<path d="M13.834 34.7838C13.834 30.8818 18.9449 30.2576 18.9449 28.1081C18.9449 27.1636 18.2066 26.5989 17.2827 26.5989C16.0053 26.5989 15.3121 27.8797 15.3121 27.8797L13.8341 26.9042C13.8341 26.9042 14.8344 24.7398 17.4519 24.7398C19.3762 24.7398 21.0083 25.8977 21.0083 27.9405C21.0083 31.4156 16.1131 32.01 16.0667 34.0528H21.1776V35.7444H13.9268C13.8804 35.3945 13.834 35.0892 13.834 34.7838ZM22.2908 31.7507L27.0018 24.9222H29.3572V31.3237H30.7738V32.9558H29.3572V35.7445H27.4017V32.9558H22.2908V31.7507ZM27.4016 31.3237V27.9716C27.4016 27.438 27.4793 26.8435 27.4793 26.8435H27.4479C27.4479 26.8435 27.2022 27.4218 26.9089 27.8338L24.3842 31.294V31.3237H27.4016ZM37.0435 30.7501L36.6631 32.0991C34.5008 39.7673 26.6109 44.6061 18.8062 42.6883C11.3097 40.8463 6.65074 33.6548 7.77101 26.328L10.0298 26.9523C10.5534 27.097 11.0389 26.6263 10.9036 26.105L8.4472 16.635C8.312 16.1138 7.65757 15.9329 7.26914 16.3094L0.212524 23.1501C-0.175907 23.5266 -0.00694618 24.1784 0.51675 24.3231L2.97539 25.0026C1.14057 34.9135 7.31642 44.7845 17.3945 47.3827C27.8594 50.0807 38.5334 43.6677 41.4411 33.3558L41.8048 32.0661C41.9096 31.6942 41.6902 31.3086 41.3145 31.2047L37.9135 30.2647C37.5379 30.1608 37.1483 30.3783 37.0435 30.7501ZM41.0622 24.8492L37.4957 25.308C37.1089 25.3577 36.8362 25.7084 36.8863 26.0914L37.0269 27.1623C37.0771 27.5452 37.4314 27.8153 37.8181 27.7655L41.3847 27.3067C41.7715 27.257 42.0442 26.9063 41.9941 26.5233L41.8534 25.4524C41.8033 25.0696 41.449 24.7995 41.0622 24.8492ZM38.3166 18.1769L35.1834 19.925C34.8436 20.1146 34.7234 20.5409 34.9149 20.8774L35.4504 21.8182C35.6418 22.1546 36.0725 22.2736 36.4123 22.0841L39.5455 20.336C39.8853 20.1464 40.0055 19.7201 39.814 19.3836L39.2785 18.4428C39.0871 18.1064 38.6564 17.9874 38.3166 18.1769ZM33.2463 13.0087L31.0026 15.7916C30.7593 16.0933 30.8092 16.5333 31.114 16.7741L31.9666 17.4478C32.2713 17.6888 32.7157 17.6394 32.959 17.3376L35.2027 14.5547C35.446 14.2529 35.3961 13.813 35.0913 13.5721L34.2387 12.8984C33.934 12.6576 33.4896 12.7069 33.2463 13.0087ZM26.5897 10.0973L25.5623 13.5096C25.4509 13.8796 25.6636 14.2691 26.0373 14.3794L27.0827 14.6878C27.4564 14.7982 27.8497 14.5875 27.9612 14.2176L28.9885 10.8053C29.0999 10.4353 28.8872 10.0459 28.5135 9.93554L27.4682 9.62708C27.0944 9.51674 26.7011 9.72729 26.5897 10.0973ZM19.3161 9.86664L19.6547 13.4115C19.6914 13.7959 20.036 14.0781 20.4242 14.0418L21.5101 13.94C21.8984 13.9037 22.1834 13.5626 22.1467 13.1782L21.8081 9.63333C21.7714 9.2489 21.4268 8.9668 21.0386 9.00315L19.9526 9.1048C19.5644 9.14115 19.2794 9.48222 19.3161 9.86664ZM12.485 12.3504L14.1402 15.5115C14.3196 15.8543 14.7459 15.9881 15.0922 15.8104L16.0606 15.3135C16.4068 15.1357 16.542 14.7138 16.3625 14.3709L14.7072 11.2098C14.5278 10.867 14.1015 10.7332 13.7553 10.9109L12.7868 11.4079C12.4406 11.5855 12.3055 12.0075 12.485 12.3504Z" fill="#F8D465"/>
</svg>
