<svg width="62" height="51" viewBox="0 0 62 51" fill="none" xmlns="http://www.w3.org/2000/svg">
<circle cx="40.6309" cy="15" r="15" fill="black"/>
<path d="M53.0684 8.75488C53.0684 10.236 52.8154 11.3366 52.3096 12.0566C51.8037 12.7767 51.013 13.1367 49.9375 13.1367C48.8757 13.1367 48.0895 12.7858 47.5791 12.084C47.0687 11.3776 46.8044 10.3249 46.7861 8.92578V7.2373C46.7861 5.77441 47.0391 4.6875 47.5449 3.97656C48.0508 3.26562 48.8438 2.91016 49.9238 2.91016C50.9948 2.91016 51.7832 3.25423 52.2891 3.94238C52.7949 4.62598 53.0547 5.68327 53.0684 7.11426V8.75488ZM51.8037 7.02539C51.8037 5.95443 51.6533 5.17513 51.3525 4.6875C51.0518 4.19531 50.5755 3.94922 49.9238 3.94922C49.2767 3.94922 48.805 4.19303 48.5088 4.68066C48.2126 5.16829 48.0599 5.91797 48.0508 6.92969V8.95312C48.0508 10.0286 48.2057 10.8239 48.5156 11.3389C48.8301 11.8493 49.304 12.1045 49.9375 12.1045C50.5618 12.1045 51.0244 11.863 51.3252 11.3799C51.6305 10.8968 51.79 10.1357 51.8037 9.09668V7.02539ZM60.0273 9.65723H61.4082V10.6895H60.0273V13H58.7559V10.6895H54.2236V9.94434L58.6807 3.04688H60.0273V9.65723ZM55.6592 9.65723H58.7559V4.77637L58.6055 5.0498L55.6592 9.65723Z" fill="#A9A9A9"/>
<path d="M47.9269 29.5445C47.9334 29.538 47.94 29.5314 47.9465 29.5257C48.626 28.8446 49 27.9406 49 26.9794V25.6834C49 25.2317 48.635 24.8667 48.1834 24.8667H45.891L30.8349 18.8438C30.4192 18.6764 29.9406 18.8789 29.7732 19.2995C29.6059 19.7176 29.81 20.193 30.229 20.3604L41.4925 24.8667H7.82287L21.8606 19.6678C22.5825 20.8235 23.8565 21.6001 25.3167 21.6001C27.5682 21.6001 29.4001 19.7683 29.4001 17.5167C29.4001 15.5445 27.9946 13.8948 26.1335 13.5159V12.5342C27.9946 12.1545 29.4001 10.5048 29.4001 8.53337V2.81663C29.4001 2.36501 29.0351 2 28.5835 2C28.1318 2 27.7668 2.36501 27.7668 2.81663V5.28788C27.0825 4.76927 26.2397 4.45 25.3168 4.45C24.394 4.45 23.5512 4.76936 22.8668 5.28788V2.81663C22.8668 2.36501 22.5018 2 22.0502 2C21.5986 2 21.2336 2.36501 21.2336 2.81663V8.53327C21.2336 10.5047 22.6391 12.1544 24.5002 12.5341V14.25C24.5002 14.7016 24.8652 15.0666 25.3168 15.0666C26.6676 15.0666 27.7668 16.1659 27.7668 17.5166C27.7668 18.8674 26.6676 19.9666 25.3168 19.9666C24.5631 19.9666 23.8958 19.6171 23.4467 19.0798L25.3054 18.3921L25.833 18.6029C25.9319 18.6429 26.0348 18.6609 26.136 18.6609C26.4594 18.6609 26.7657 18.4674 26.8947 18.1472C27.0621 17.7291 26.8588 17.2538 26.4389 17.0864L25.6198 16.7581C25.5831 16.7434 25.5447 16.7467 25.5071 16.7377C25.4475 16.723 25.3903 16.7051 25.3282 16.7042C25.2653 16.7034 25.2073 16.7197 25.147 16.7328C25.1093 16.741 25.071 16.7369 25.0326 16.7508L22.8701 17.5519C22.8701 17.5397 22.8668 17.5291 22.8668 17.5168C22.8668 17.0652 22.5018 16.7002 22.0502 16.7002C21.5986 16.7002 21.2336 17.0652 21.2336 17.5168C21.2336 17.7283 21.2646 17.9317 21.2964 18.1351L3.12069 24.8668H0.816635C0.365012 24.8668 0 25.2318 0 25.6835V26.9811C0 27.9301 0.385492 28.8586 1.05599 29.5291C1.42837 29.8999 1.63337 30.3947 1.63337 30.9207V44.947C1.63337 45.4566 1.42923 45.9564 1.07235 46.3215C1.06661 46.328 1.0601 46.3346 1.0536 46.3402C0.374008 47.0212 0 47.9252 0 48.8865V50.1834C0 50.635 0.365012 51 0.816635 51H48.1833C48.6349 51 48.9999 50.635 48.9999 50.1834V48.8881C48.9999 47.9424 48.6169 47.0155 47.9415 46.3393C47.5765 45.9718 47.3666 45.4654 47.3666 44.9485V30.9198C47.3666 30.402 47.5651 29.9145 47.9269 29.5445ZM8.16663 46.1C8.16663 46.5516 7.80162 46.9166 7.35 46.9166C6.89838 46.9166 6.53337 46.5516 6.53337 46.1V29.7666C6.53337 29.315 6.89838 28.95 7.35 28.95C7.80162 28.95 8.16663 29.315 8.16663 29.7666V46.1ZM13.0666 46.1C13.0666 46.5516 12.7016 46.9166 12.25 46.9166C11.7984 46.9166 11.4334 46.5516 11.4334 46.1V29.7666C11.4334 29.315 11.7984 28.95 12.25 28.95C12.7016 28.95 13.0666 29.315 13.0666 29.7666V46.1ZM17.9666 46.1C17.9666 46.5516 17.6016 46.9166 17.15 46.9166C16.6984 46.9166 16.3334 46.5516 16.3334 46.1V29.7666C16.3334 29.315 16.6984 28.95 17.15 28.95C17.6016 28.95 17.9666 29.315 17.9666 29.7666V46.1ZM22.8666 46.1C22.8666 46.5516 22.5016 46.9166 22.05 46.9166C21.5984 46.9166 21.2334 46.5516 21.2334 46.1V29.7666C21.2334 29.315 21.5984 28.95 22.05 28.95C22.5016 28.95 22.8666 29.315 22.8666 29.7666V46.1ZM27.7666 46.1C27.7666 46.5516 27.4016 46.9166 26.95 46.9166C26.4984 46.9166 26.1334 46.5516 26.1334 46.1V29.7666C26.1334 29.315 26.4984 28.95 26.95 28.95C27.4016 28.95 27.7666 29.315 27.7666 29.7666V46.1ZM32.6666 46.1C32.6666 46.5516 32.3016 46.9166 31.85 46.9166C31.3984 46.9166 31.0334 46.5516 31.0334 46.1V29.7666C31.0334 29.315 31.3984 28.95 31.85 28.95C32.3016 28.95 32.6666 29.315 32.6666 29.7666V46.1ZM37.5666 46.1C37.5666 46.5516 37.2016 46.9166 36.75 46.9166C36.2984 46.9166 35.9334 46.5516 35.9334 46.1V29.7666C35.9334 29.315 36.2984 28.95 36.75 28.95C37.2016 28.95 37.5666 29.315 37.5666 29.7666V46.1ZM42.4666 46.1C42.4666 46.5516 42.1016 46.9166 41.65 46.9166C41.1984 46.9166 40.8334 46.5516 40.8334 46.1V29.7666C40.8334 29.315 41.1984 28.95 41.65 28.95C42.1016 28.95 42.4666 29.315 42.4666 29.7666V46.1Z" fill="#F8D465"/>
</svg>
