<svg viewBox="0 0 64 51" fill="none" xmlns="http://www.w3.org/2000/svg">
<circle cx="40.6309" cy="15" r="15" fill="black"/>
<path d="M15.3883 40.9326C13.5949 42.5898 11.1144 42.961 8.9143 41.9017C8.11894 41.5187 7.44776 40.9899 6.92232 40.3565L3.92662 46.9819C3.79032 47.2833 3.94252 47.5105 4.01422 47.5942C4.08592 47.6777 4.28728 47.8627 4.60589 47.7741L6.78673 47.1672C7.03526 47.0981 7.28648 47.0647 7.5342 47.0647C8.57925 47.0647 9.56284 47.6562 10.0364 48.6363L11.0214 50.6744C11.1652 50.9722 11.435 51.002 11.5474 50.9997C11.6575 50.9983 11.9285 50.9625 12.0647 50.6611L16.8297 40.1221C16.3062 40.2727 15.8104 40.5425 15.3883 40.9326Z" fill="#F8D465"/>
<path d="M32.0735 46.9819L29.0778 40.3565C28.5523 40.99 27.8811 41.5188 27.0858 41.9017C24.8856 42.961 22.4052 42.5898 20.6118 40.9326C20.1897 40.5425 19.6939 40.2727 19.1702 40.1221L23.9352 50.6611C24.0715 50.9626 24.3425 50.9983 24.4526 50.9997C24.5649 51.002 24.8347 50.9722 24.9785 50.6744L25.9635 48.6363C26.437 47.6562 27.4207 47.0647 28.4657 47.0647C28.7134 47.0647 28.9647 47.0981 29.2132 47.1672L31.394 47.7741C31.7126 47.8628 31.9141 47.6778 31.9857 47.5942C32.0576 47.5105 32.2098 47.2832 32.0735 46.9819Z" fill="#F8D465"/>
<path d="M34.4265 23.6687C31.9386 21.9653 31.1666 18.5831 32.6691 15.9689C33.5722 14.3975 33.1022 12.8446 32.3612 11.9154C31.6201 10.9864 30.2105 10.1827 28.4776 10.7133C25.5948 11.5961 22.4686 10.0911 21.3613 7.28652C20.6957 5.6007 19.1885 5 18 5C16.8116 5 15.3043 5.6007 14.6387 7.28661C13.5314 10.0913 10.4055 11.5961 7.5225 10.7133C5.78938 10.1829 4.38008 10.9864 3.6389 11.9154C2.89791 12.8447 2.4279 14.3974 3.33099 15.969C4.83346 18.5831 4.06147 21.9654 1.57351 23.6688C0.077867 24.6929 -0.172366 26.2958 0.0919733 27.4545C0.356313 28.6131 1.27746 29.9486 3.06934 30.2224C6.05003 30.6777 8.21309 33.3899 7.99395 36.3971C7.86205 38.2048 8.95939 39.3999 10.0301 39.9156C11.101 40.4312 12.7195 40.5441 14.0508 39.3138C15.1579 38.2908 16.5792 37.779 17.9999 37.779C19.4212 37.779 20.8417 38.2905 21.949 39.3138C23.2804 40.5441 24.8991 40.4313 25.9698 39.9156C27.0406 39.4 28.1378 38.2049 28.006 36.3971C27.7869 33.39 29.9499 30.6778 32.9306 30.2224C34.7225 29.9486 35.6435 28.613 35.908 27.4545C36.1724 26.2957 35.922 24.6928 34.4265 23.6687ZM18 35.1806C11.4791 35.1806 6.17403 29.8758 6.17403 23.3554C6.17403 16.835 11.4791 11.5302 18 11.5302C24.521 11.5302 29.826 16.8349 29.826 23.3553C29.8259 29.8757 24.5209 35.1806 18 35.1806Z" fill="#F8D465"/>
<path d="M18 13.7349C12.6949 13.7349 8.37891 18.0506 8.37891 23.3552C8.37891 28.6599 12.6948 32.9756 18 32.9756C23.3052 32.9756 27.6211 28.6599 27.6211 23.3552C27.6211 18.0506 23.3051 13.7349 18 13.7349ZM22.9305 22.4225L16.9427 26.7956C16.7527 26.9344 16.5246 27.0078 16.2925 27.0078C16.2326 27.0078 16.1725 27.003 16.1127 26.9931C15.8208 26.9449 15.5604 26.7812 15.3902 26.539L13.5991 23.9891C13.2492 23.4907 13.3695 22.8031 13.8677 22.4532C14.366 22.1033 15.0535 22.2235 15.4036 22.7218L16.5492 24.3528L21.63 20.642C22.1218 20.2831 22.8116 20.3902 23.1706 20.882C23.5297 21.3736 23.4222 22.0633 22.9305 22.4225Z" fill="#F8D465"/>
<path d="M55.0684 10.7549C55.0684 12.236 54.8154 13.3366 54.3096 14.0566C53.8037 14.7767 53.013 15.1367 51.9375 15.1367C50.8757 15.1367 50.0895 14.7858 49.5791 14.084C49.0687 13.3776 48.8044 12.3249 48.7861 10.9258V9.2373C48.7861 7.77441 49.0391 6.6875 49.5449 5.97656C50.0508 5.26562 50.8438 4.91016 51.9238 4.91016C52.9948 4.91016 53.7832 5.25423 54.2891 5.94238C54.7949 6.62598 55.0547 7.68327 55.0684 9.11426V10.7549ZM53.8037 9.02539C53.8037 7.95443 53.6533 7.17513 53.3525 6.6875C53.0518 6.19531 52.5755 5.94922 51.9238 5.94922C51.2767 5.94922 50.805 6.19303 50.5088 6.68066C50.2126 7.16829 50.0599 7.91797 50.0508 8.92969V10.9531C50.0508 12.0286 50.2057 12.8239 50.5156 13.3389C50.8301 13.8493 51.304 14.1045 51.9375 14.1045C52.5618 14.1045 53.0244 13.863 53.3252 13.3799C53.6305 12.8968 53.79 12.1357 53.8037 11.0967V9.02539ZM63.1143 5.75781L58.9922 15H57.666L61.7744 6.08594H56.3877V5.04688H63.1143V5.75781Z" fill="#A9A9A9"/>
</svg>
