<svg width="65" height="49" viewBox="0 0 65 49" fill="none" xmlns="http://www.w3.org/2000/svg">
<circle cx="41.6309" cy="15" r="15" fill="black"/>
<path d="M34.9424 9.68914H34.0687V9.22846C34.0687 8.55035 33.496 8 32.7874 8C32.0802 8 31.5062 8.55035 31.5062 9.22846V9.68914H29.1527V9.22846C29.1527 8.55035 28.5787 8 27.8714 8C27.1642 8 26.5902 8.55035 26.5902 9.22846V9.68914H24.2366V9.22846C24.2366 8.55035 23.6639 8 22.9554 8C22.2482 8 21.6742 8.55035 21.6742 9.22846V9.68914H19.3206V9.22846C19.3206 8.55035 18.7467 8 18.0394 8C17.3322 8 16.7582 8.55035 16.7582 9.22846V9.68914H14.4046V9.22846C14.4046 8.55035 13.8307 8 13.1234 8C12.4162 8 11.8422 8.55035 11.8422 9.22846V9.68914H9.48992V9.22846C9.48992 8.55035 8.91594 8 8.20871 8C7.50148 8 6.9275 8.55035 6.9275 9.22846V9.68914H6.05372C2.71617 9.68914 0 12.2935 0 15.4949V43.1931C0 46.3932 2.71617 49 6.05628 49H34.9424C38.2813 49 41 46.3957 41 43.1931V15.4949C40.9987 12.2935 38.2826 9.68914 34.9424 9.68914ZM32.1494 9.22846C32.1494 8.88941 32.4364 8.61423 32.79 8.61423C33.1436 8.61423 33.4306 8.88941 33.4306 9.22846V17.1914C33.4306 17.5304 33.1436 17.8056 32.79 17.8056C32.4364 17.8056 32.1494 17.5304 32.1494 17.1914V9.22846ZM27.2334 9.22846C27.2334 8.88941 27.5217 8.61423 27.874 8.61423C28.2276 8.61423 28.5146 8.88941 28.5146 9.22846V17.1914C28.5146 17.5304 28.2276 17.8056 27.874 17.8056C27.5217 17.8056 27.2334 17.5304 27.2334 17.1914V9.22846ZM22.3174 9.22846C22.3174 8.88941 22.6044 8.61423 22.958 8.61423C23.3116 8.61423 23.5986 8.88941 23.5986 9.22846V17.1914C23.5986 17.5304 23.3116 17.8056 22.958 17.8056C22.6044 17.8056 22.3174 17.5304 22.3174 17.1914V9.22846ZM17.4014 9.22846C17.4014 8.88941 17.6884 8.61423 18.042 8.61423C18.3956 8.61423 18.6826 8.88941 18.6826 9.22846V17.1914C18.6826 17.5304 18.3956 17.8056 18.042 17.8056C17.6884 17.8056 17.4014 17.5304 17.4014 17.1914V9.22846ZM12.4854 9.22846C12.4854 8.88941 12.7724 8.61423 13.126 8.61423C13.4796 8.61423 13.7666 8.88941 13.7666 9.22846V17.1914C13.7666 17.5304 13.4796 17.8056 13.126 17.8056C12.7724 17.8056 12.4854 17.5304 12.4854 17.1914V9.22846ZM7.56939 9.22846C7.56939 8.88941 7.85638 8.61423 8.20999 8.61423C8.56361 8.61423 8.8506 8.88941 8.8506 9.22846V17.1914C8.8506 17.5304 8.56361 17.8056 8.20999 17.8056C7.85638 17.8056 7.56939 17.5304 7.56939 17.1914V9.22846ZM37.9136 43.1931C37.9136 44.7618 36.5811 46.0394 34.9437 46.0394H6.05628C4.41889 46.0394 3.08643 44.7618 3.08643 43.1931V15.4949C3.08643 13.9249 4.41889 12.6473 6.05628 12.6473H6.93007V15.7344C6.49574 16.0858 6.21259 16.6054 6.21259 17.1926C6.21259 18.2491 7.10815 19.109 8.21128 19.109C9.3144 19.109 10.21 18.2503 10.21 17.1926C10.21 16.6054 9.92682 16.087 9.49249 15.7344V12.6473H11.8461V15.7344C11.4117 16.0858 11.1286 16.6054 11.1286 17.1926C11.1286 18.2491 12.0242 19.109 13.1273 19.109C14.2304 19.109 15.126 18.2503 15.126 17.1926C15.126 16.6054 14.8428 16.087 14.4085 15.7344V12.6473H16.7621V15.7344C16.3277 16.0858 16.0446 16.6054 16.0446 17.1926C16.0446 18.2491 16.9402 19.109 18.0433 19.109C19.1464 19.109 20.042 18.2503 20.042 17.1926C20.042 16.6054 19.7588 16.087 19.3245 15.7344V12.6473H21.6781V15.7344C21.2437 16.0858 20.9606 16.6054 20.9606 17.1926C20.9606 18.2491 21.8562 19.109 22.9593 19.109C24.0624 19.109 24.9592 18.2503 24.9592 17.1926C24.9592 16.6054 24.6748 16.087 24.2405 15.7344V12.6473H26.5941V15.7344C26.1597 16.0858 25.8766 16.6054 25.8766 17.1926C25.8766 18.2491 26.7722 19.109 27.8753 19.109C28.9784 19.109 29.874 18.2503 29.874 17.1926C29.874 16.6054 29.5908 16.087 29.1565 15.7344V12.6473H31.5101V15.7344C31.0757 16.0858 30.7926 16.6054 30.7926 17.1926C30.7926 18.2491 31.6869 19.109 32.7913 19.109C33.8957 19.109 34.7913 18.2503 34.7913 17.1926C34.7913 16.6054 34.5081 16.087 34.0725 15.7344V12.6473H34.9463C36.5824 12.6473 37.9148 13.9249 37.9148 15.4949L37.9136 43.1931Z" fill="#F8D465"/>
<path d="M20.5466 38.0865C20.9668 38.0865 21.3422 38.0227 21.6779 37.8961C22.011 37.7684 22.298 37.5964 22.5388 37.3716C22.7797 37.1468 22.9668 36.89 23.1 36.6001C23.232 36.3102 23.2973 36.0092 23.2973 35.696C23.2973 34.9675 23.059 34.3496 22.585 33.841C22.1122 33.3361 21.4255 33.083 20.5235 33.083C20.1519 33.083 19.8099 33.1506 19.4985 33.2832C19.1885 33.4184 18.9207 33.6063 18.6952 33.841C18.4697 34.0805 18.2942 34.3557 18.1712 34.669C18.0456 34.9822 17.9841 35.3164 17.9841 35.6738C17.9841 36.3434 18.2173 36.9134 18.6824 37.3839C19.15 37.8507 19.7714 38.0865 20.5466 38.0865Z" fill="#F8D465"/>
<path d="M5.76562 42.9328H35.2335V23.4321H5.76562V42.9328Z" fill="#F8D465"/>
<path d="M56.0684 8.75488C56.0684 10.236 55.8154 11.3366 55.3096 12.0566C54.8037 12.7767 54.013 13.1367 52.9375 13.1367C51.8757 13.1367 51.0895 12.7858 50.5791 12.084C50.0687 11.3776 49.8044 10.3249 49.7861 8.92578V7.2373C49.7861 5.77441 50.0391 4.6875 50.5449 3.97656C51.0508 3.26562 51.8438 2.91016 52.9238 2.91016C53.9948 2.91016 54.7832 3.25423 55.2891 3.94238C55.7949 4.62598 56.0547 5.68327 56.0684 7.11426V8.75488ZM54.8037 7.02539C54.8037 5.95443 54.6533 5.17513 54.3525 4.6875C54.0518 4.19531 53.5755 3.94922 52.9238 3.94922C52.2767 3.94922 51.805 4.19303 51.5088 4.68066C51.2126 5.16829 51.0599 5.91797 51.0508 6.92969V8.95312C51.0508 10.0286 51.2057 10.8239 51.5156 11.3389C51.8301 11.8493 52.304 12.1045 52.9375 12.1045C53.5618 12.1045 54.0244 11.863 54.3252 11.3799C54.6305 10.8968 54.79 10.1357 54.8037 9.09668V7.02539ZM63.7246 5.64453C63.7246 6.14128 63.5924 6.58333 63.3281 6.9707C63.0684 7.35807 62.7152 7.66113 62.2686 7.87988C62.7881 8.10319 63.1982 8.42904 63.499 8.85742C63.8044 9.28581 63.957 9.77116 63.957 10.3135C63.957 11.1748 63.6654 11.8607 63.082 12.3711C62.5033 12.8815 61.7399 13.1367 60.792 13.1367C59.835 13.1367 59.0671 12.8815 58.4883 12.3711C57.9141 11.8561 57.627 11.1702 57.627 10.3135C57.627 9.77572 57.7728 9.29036 58.0645 8.85742C58.3607 8.42448 58.7686 8.09635 59.2881 7.87305C58.846 7.6543 58.4974 7.35124 58.2422 6.96387C57.987 6.5765 57.8594 6.13672 57.8594 5.64453C57.8594 4.80599 58.1283 4.14062 58.666 3.64844C59.2038 3.15625 59.9124 2.91016 60.792 2.91016C61.667 2.91016 62.3734 3.15625 62.9111 3.64844C63.4535 4.14062 63.7246 4.80599 63.7246 5.64453ZM62.6924 10.2861C62.6924 9.73014 62.5146 9.27669 62.1592 8.92578C61.8083 8.57487 61.348 8.39941 60.7783 8.39941C60.2087 8.39941 59.7507 8.57259 59.4043 8.91895C59.0625 9.2653 58.8916 9.72103 58.8916 10.2861C58.8916 10.8512 59.0579 11.2956 59.3906 11.6191C59.7279 11.9427 60.195 12.1045 60.792 12.1045C61.3844 12.1045 61.8493 11.9427 62.1865 11.6191C62.5238 11.291 62.6924 10.8467 62.6924 10.2861ZM60.792 3.94922C60.2952 3.94922 59.8919 4.10417 59.582 4.41406C59.2767 4.7194 59.124 5.13639 59.124 5.66504C59.124 6.1709 59.2744 6.58105 59.5752 6.89551C59.8805 7.2054 60.2861 7.36035 60.792 7.36035C61.2979 7.36035 61.7012 7.2054 62.002 6.89551C62.3073 6.58105 62.46 6.1709 62.46 5.66504C62.46 5.15918 62.3027 4.74674 61.9883 4.42773C61.6738 4.10872 61.2751 3.94922 60.792 3.94922Z" fill="#A9A9A9"/>
</svg>
