<svg viewBox="0 0 64 51" fill="none" xmlns="http://www.w3.org/2000/svg">
<circle cx="39.6309" cy="15" r="15" fill="black"/>
<path d="M55.0684 8.75488C55.0684 10.236 54.8154 11.3366 54.3096 12.0566C53.8037 12.7767 53.013 13.1367 51.9375 13.1367C50.8757 13.1367 50.0895 12.7858 49.5791 12.084C49.0687 11.3776 48.8044 10.3249 48.7861 8.92578V7.2373C48.7861 5.77441 49.0391 4.6875 49.5449 3.97656C50.0508 3.26562 50.8438 2.91016 51.9238 2.91016C52.9948 2.91016 53.7832 3.25423 54.2891 3.94238C54.7949 4.62598 55.0547 5.68327 55.0684 7.11426V8.75488ZM53.8037 7.02539C53.8037 5.95443 53.6533 5.17513 53.3525 4.6875C53.0518 4.19531 52.5755 3.94922 51.9238 3.94922C51.2767 3.94922 50.805 4.19303 50.5088 4.68066C50.2126 5.16829 50.0599 5.91797 50.0508 6.92969V8.95312C50.0508 10.0286 50.2057 10.8239 50.5156 11.3389C50.8301 11.8493 51.304 12.1045 51.9375 12.1045C52.5618 12.1045 53.0244 11.863 53.3252 11.3799C53.6305 10.8968 53.79 10.1357 53.8037 9.09668V7.02539ZM60.8447 13H59.5732V4.57129L57.0234 5.50781V4.35938L60.6465 2.99902H60.8447V13Z" fill="#A9A9A9"/>
<path d="M54.0833 25.6923C51.0382 24.5019 47.9706 22.0744 44.9906 22.2605C40.9079 22.5085 39.3014 18.5837 37.3465 16.2617C35.963 14.6279 36.0683 11.2239 32.9756 12.1602C30.6899 12.8546 27.5996 12.6004 26.2989 14.3706C24.6773 16.5779 23.3891 16.3268 21.6021 16.1408C18.6999 15.8307 15.8427 15.3843 12.9981 14.4977C10.8076 13.825 8.47431 13.6451 6.21617 14.7116C4.65978 15.4556 3.29135 16.1005 4.77005 18.6147C5.66479 20.1245 5.55201 21.4048 3.97306 22.4C3.10338 22.9425 2.37907 24.0213 1.79261 25.0382C-0.723684 29.3815 -0.583334 33.5388 2.16604 33.8271C5.88283 34.2146 9.67732 36.1181 13.4417 32.7545C16.0031 30.4603 19.6071 32.5932 21.151 36.2452C21.7776 37.7302 22.6197 39.0757 23.5169 40.7652C19.7024 40.3157 19.7901 43.9863 18.557 46.3858C22.2838 47.8739 23.9981 44.7923 25.8402 42.2347C26.6673 41.0908 27.6397 39.7918 28.6297 41.0474C30.1736 43.0097 32.0808 42.6594 33.9254 43.0655C33.8828 43.5027 33.7325 43.8065 33.5219 44.0452C32.8954 44.7551 31.7726 44.8667 31.745 46.1688C32.6021 47.0895 34.4167 46.857 34.4818 48.7667C34.4894 49.0395 34.4643 49.3557 34.3916 49.7309C34.2212 50.6175 35.3264 51.2189 35.6974 50.9244C38.2638 48.9155 41.3365 48.3668 43.8528 45.8681C43.3515 45.8216 42.8402 45.6728 42.354 45.7596C40.9605 46.0014 39.6899 45.8309 39.2462 43.9336C38.8076 42.058 40.6573 41.3419 41.1485 41.2272C45.4392 40.1948 48.7901 36.7133 52.7325 34.8657C55.7199 33.4582 53.1034 29.8341 54.7701 27.9089C55.1335 27.4842 55.1736 26.1201 54.0833 25.6923Z" fill="#F8D465"/>
</svg>
