<svg width="64" height="51" viewBox="0 0 64 51" fill="none" xmlns="http://www.w3.org/2000/svg">
<circle cx="40.6309" cy="15" r="15" fill="black"/>
<path d="M55.0684 11.7549C55.0684 13.236 54.8154 14.3366 54.3096 15.0566C53.8037 15.7767 53.013 16.1367 51.9375 16.1367C50.8757 16.1367 50.0895 15.7858 49.5791 15.084C49.0687 14.3776 48.8044 13.3249 48.7861 11.9258V10.2373C48.7861 8.77441 49.0391 7.6875 49.5449 6.97656C50.0508 6.26562 50.8438 5.91016 51.9238 5.91016C52.9948 5.91016 53.7832 6.25423 54.2891 6.94238C54.7949 7.62598 55.0547 8.68327 55.0684 10.1143V11.7549ZM53.8037 10.0254C53.8037 8.95443 53.6533 8.17513 53.3525 7.6875C53.0518 7.19531 52.5755 6.94922 51.9238 6.94922C51.2767 6.94922 50.805 7.19303 50.5088 7.68066C50.2126 8.16829 50.0599 8.91797 50.0508 9.92969V11.9531C50.0508 13.0286 50.2057 13.8239 50.5156 14.3389C50.8301 14.8493 51.304 15.1045 51.9375 15.1045C52.5618 15.1045 53.0244 14.863 53.3252 14.3799C53.6305 13.8968 53.79 13.1357 53.8037 12.0967V10.0254ZM63.21 16H56.6885V15.0908L60.1338 11.2627C60.6442 10.6839 60.9951 10.2145 61.1865 9.85449C61.3825 9.48991 61.4805 9.11393 61.4805 8.72656C61.4805 8.20703 61.3232 7.78092 61.0088 7.44824C60.6943 7.11556 60.2751 6.94922 59.751 6.94922C59.1221 6.94922 58.6322 7.12923 58.2812 7.48926C57.9349 7.84473 57.7617 8.34147 57.7617 8.97949H56.4971C56.4971 8.06348 56.791 7.32292 57.3789 6.75781C57.9714 6.19271 58.762 5.91016 59.751 5.91016C60.6761 5.91016 61.4076 6.15397 61.9453 6.6416C62.4831 7.12467 62.752 7.76953 62.752 8.57617C62.752 9.55599 62.1276 10.7227 60.8789 12.0762L58.2129 14.9678H63.21V16Z" fill="#A9A9A9"/>
<path d="M34.1667 30.5C34.544 30.5 34.85 30.1941 34.85 29.8167V20.25H40.3167C40.694 20.25 41 19.9441 41 19.5667V16.8334C40.9965 16.808 40.9915 16.783 40.985 16.7582C40.9806 16.7087 40.9708 16.6599 40.9556 16.6126C40.9429 16.5779 40.9274 16.5443 40.9091 16.5122C40.8475 16.3957 40.7523 16.3004 40.6358 16.2389C40.6015 16.2197 40.5657 16.2038 40.5285 16.191C40.5087 16.1842 40.493 16.1712 40.4725 16.1664L14.5058 10.0164C14.4547 10.005 14.4024 9.99952 14.35 10H11.6167C11.5359 10.0018 11.456 10.018 11.3809 10.0479C11.3625 10.0547 11.3454 10.0608 11.3276 10.069C11.3098 10.0772 11.2962 10.0793 11.2812 10.0875L0.347817 16.2375C0.314077 16.26 0.282558 16.2857 0.253517 16.314C0.231052 16.33 0.209613 16.3473 0.189283 16.366C0.132054 16.4242 0.0858437 16.4923 0.0526167 16.5669V16.5751C0.0228062 16.6501 0.00657708 16.73 0.00478333 16.8108C0.00478333 16.8191 0 16.8258 0 16.834V19.5674C0 19.9447 0.305962 20.2507 0.683333 20.2507H10.25V32.9504L7.71688 35.4836C7.58876 35.6117 7.51667 35.7854 7.51667 35.9667V46.9H6.15V51H19.8167V46.9H18.45V35.9667C18.45 35.7854 18.3779 35.6117 18.2498 35.4836L15.7167 32.9504V20.25H29.3833V29.8167C29.3833 30.1941 29.6893 30.5 30.0667 30.5H31.4333V32.55C31.4333 32.9274 31.7393 33.2333 32.1167 33.2333C32.8715 33.2333 33.4833 33.8452 33.4833 34.6C33.4833 35.3548 32.8715 35.9667 32.1167 35.9667C31.3618 35.9667 30.75 35.3548 30.75 34.6V33.9167H29.3833V34.6C29.3868 35.5976 29.9352 36.5134 30.8129 36.9876L25.6838 42.1167H23.9167C23.5393 42.1167 23.2333 42.4226 23.2333 42.8V48.95C23.2333 49.3274 23.5393 49.6333 23.9167 49.6333H40.3167C40.694 49.6333 41 49.3274 41 48.95V42.8C41 42.4226 40.694 42.1167 40.3167 42.1167H38.5496L33.4205 36.9876C34.744 36.2742 35.2386 34.623 34.5252 33.2995C34.1638 32.629 33.5382 32.1406 32.8 31.9528V30.5H34.1667ZM34.85 17.5167H39.6333V18.8834H34.85V17.5167ZM39.6333 43.4833V48.2667H24.6V43.4833H39.6333ZM36.6171 42.1167H27.6162L32.1167 37.6163L36.6171 42.1167ZM33.4833 26.4H30.75V20.25H33.4833V26.4ZM33.4833 18.8834H30.75V17.5167H33.4833V18.8834ZM12.3 11.3667H13.6667V16.15H12.3V11.3667ZM11.6167 17.5167H14.35V18.6005L14.0671 18.8834H11.6167V17.5167ZM14.35 20.5329V25.4338L11.8996 22.9834L14.35 20.5329ZM11.6167 20.25H12.7004L11.6167 21.3338V20.25ZM11.6167 24.633L14.0671 27.0834L11.6167 29.5338V24.633ZM14.35 28.733V33.2333V33.6338L11.8996 31.1833L14.35 28.733ZM11.6167 33.2333V32.8329L14.0671 35.2833L11.6167 37.7338V33.2333ZM14.35 36.933V41.8339L11.8996 39.3833L14.35 36.933ZM11.6167 41.033L14.0671 43.4833L11.6167 45.9338V41.033ZM14.35 45.133V46.9H12.5829L14.35 45.133ZM10.9333 11.8519V16.15H3.29162L10.9333 11.8519ZM1.36667 18.8834V17.5167H10.25V18.8834H1.36667ZM8.88333 36.2497L10.25 34.883V46.9H8.88333V36.2497ZM18.45 48.2667V49.6333H7.51667V48.2667H18.45ZM17.0833 36.2497V46.9H15.7167V34.883L17.0833 36.2497ZM29.3833 18.8834H15.7167V17.5167H29.3833V18.8834ZM15.0333 16.15V11.5471L34.4666 16.15H34.1667H15.0333ZM30.75 29.1334V27.7667H33.4833V29.1334H30.75Z" fill="#F8D465"/>
</svg>
