<svg width="70" height="49" viewBox="0 0 70 49" fill="none" xmlns="http://www.w3.org/2000/svg">
<circle cx="45.6309" cy="15" r="15" fill="black"/>
<path d="M23.143 19.4212L20.2428 27.5628C20.1444 27.8389 19.9211 28.0286 19.6639 28.0547L4.82882 29.5615C4.46484 29.5984 4.18862 29.9563 4.19814 30.3783L4.49983 43.8383C4.50816 44.2084 4.7353 44.5234 5.04876 44.5997L22.5134 48.8459C22.9404 48.9497 23.3743 49.0011 23.8083 49L23.8086 45.008V19.5735C23.8085 18.4624 23.509 18.3939 23.143 19.4212ZM21.1122 44.5225L14.556 43.3021V39.3299H21.1122V44.5225ZM18.2454 26.1198L0.76206 28.1619C0.227945 28.2242 -0.161253 27.5899 0.0662929 27.028L4.72169 15.5259C4.81641 15.2919 5.0032 15.1251 5.22306 15.0785L24.4335 11.0001L18.8079 25.6491C18.7072 25.9113 18.4925 26.091 18.2454 26.1198ZM44.1712 29.5615L29.3362 28.0548C29.0788 28.0287 28.8555 27.839 28.7573 27.5629L25.8569 19.4213C25.491 18.3939 25.1914 18.4624 25.1914 19.5735V45.008L25.1918 48.9999C25.6256 49.0011 26.0597 48.9496 26.4867 48.8458L43.9514 44.5996C44.2648 44.5234 44.492 44.2083 44.5002 43.8382L44.8019 30.3783C44.8114 29.9562 44.535 29.5984 44.1712 29.5615ZM38.066 36.751L37.2467 36.7772L37.2301 42.7376C37.2294 43.0002 36.9987 43.2513 36.7117 43.2989L35.3689 43.5221C35.0622 43.5731 34.8112 43.3915 34.8118 43.1157L34.8242 36.8549L33.8871 36.8849C33.4314 36.8994 33.1431 36.4771 33.3751 36.1276L35.6038 32.7706C35.815 32.4524 36.3332 32.4818 36.5367 32.817L38.4931 36.0399C38.6785 36.3455 38.444 36.7388 38.066 36.751ZM48.2378 28.1619L30.7544 26.1198C30.5074 26.091 30.2926 25.9113 30.192 25.649L24.5665 11L43.7769 15.0784C43.9968 15.125 44.1836 15.2918 44.2784 15.5258L48.9338 27.0279C49.1612 27.5899 48.7719 28.2242 48.2378 28.1619Z" fill="#F8D465"/>
<path d="M61.0684 8.75488C61.0684 10.236 60.8154 11.3366 60.3096 12.0566C59.8037 12.7767 59.013 13.1367 57.9375 13.1367C56.8757 13.1367 56.0895 12.7858 55.5791 12.084C55.0687 11.3776 54.8044 10.3249 54.7861 8.92578V7.2373C54.7861 5.77441 55.0391 4.6875 55.5449 3.97656C56.0508 3.26562 56.8438 2.91016 57.9238 2.91016C58.9948 2.91016 59.7832 3.25423 60.2891 3.94238C60.7949 4.62598 61.0547 5.68327 61.0684 7.11426V8.75488ZM59.8037 7.02539C59.8037 5.95443 59.6533 5.17513 59.3525 4.6875C59.0518 4.19531 58.5755 3.94922 57.9238 3.94922C57.2767 3.94922 56.805 4.19303 56.5088 4.68066C56.2126 5.16829 56.0599 5.91797 56.0508 6.92969V8.95312C56.0508 10.0286 56.2057 10.8239 56.5156 11.3389C56.8301 11.8493 57.304 12.1045 57.9375 12.1045C58.5618 12.1045 59.0244 11.863 59.3252 11.3799C59.6305 10.8968 59.79 10.1357 59.8037 9.09668V7.02539ZM67.5352 8.625C67.2708 8.93945 66.9541 9.19238 66.585 9.38379C66.2204 9.5752 65.8193 9.6709 65.3818 9.6709C64.8076 9.6709 64.3063 9.52962 63.8779 9.24707C63.4541 8.96452 63.126 8.56803 62.8936 8.05762C62.6611 7.54264 62.5449 6.97526 62.5449 6.35547C62.5449 5.6901 62.6702 5.09082 62.9209 4.55762C63.1761 4.02441 63.5361 3.61654 64.001 3.33398C64.4658 3.05143 65.0081 2.91016 65.6279 2.91016C66.6123 2.91016 67.387 3.2793 67.9521 4.01758C68.5218 4.7513 68.8066 5.75391 68.8066 7.02539V7.39453C68.8066 9.33138 68.4238 10.7464 67.6582 11.6396C66.8926 12.5283 65.7373 12.984 64.1924 13.0068H63.9463V11.9404H64.2129C65.2565 11.9222 66.0586 11.651 66.6191 11.127C67.1797 10.5983 67.485 9.76432 67.5352 8.625ZM65.5869 8.625C66.0107 8.625 66.4004 8.49512 66.7559 8.23535C67.1159 7.97559 67.3779 7.6543 67.542 7.27148V6.76562C67.542 5.9362 67.362 5.26172 67.002 4.74219C66.6419 4.22266 66.1862 3.96289 65.6348 3.96289C65.0788 3.96289 64.6322 4.17708 64.2949 4.60547C63.9577 5.0293 63.7891 5.58984 63.7891 6.28711C63.7891 6.96615 63.9508 7.52669 64.2744 7.96875C64.6025 8.40625 65.04 8.625 65.5869 8.625Z" fill="#A9A9A9"/>
</svg>
