<svg viewBox="0 0 67 50" fill="none" xmlns="http://www.w3.org/2000/svg">
<circle cx="46.6309" cy="17" r="15" fill="black"/>
<path d="M58.0684 8.75488C58.0684 10.236 57.8154 11.3366 57.3096 12.0566C56.8037 12.7767 56.013 13.1367 54.9375 13.1367C53.8757 13.1367 53.0895 12.7858 52.5791 12.084C52.0687 11.3776 51.8044 10.3249 51.7861 8.92578V7.2373C51.7861 5.77441 52.0391 4.6875 52.5449 3.97656C53.0508 3.26562 53.8438 2.91016 54.9238 2.91016C55.9948 2.91016 56.7832 3.25423 57.2891 3.94238C57.7949 4.62598 58.0547 5.68327 58.0684 7.11426V8.75488ZM56.8037 7.02539C56.8037 5.95443 56.6533 5.17513 56.3525 4.6875C56.0518 4.19531 55.5755 3.94922 54.9238 3.94922C54.2767 3.94922 53.805 4.19303 53.5088 4.68066C53.2126 5.16829 53.0599 5.91797 53.0508 6.92969V8.95312C53.0508 10.0286 53.2057 10.8239 53.5156 11.3389C53.8301 11.8493 54.304 12.1045 54.9375 12.1045C55.5618 12.1045 56.0244 11.863 56.3252 11.3799C56.6305 10.8968 56.79 10.1357 56.8037 9.09668V7.02539ZM60.2695 8.00977L60.7754 3.04688H65.875V4.21582H61.8486L61.5479 6.92969C62.0355 6.64258 62.5892 6.49902 63.209 6.49902C64.1159 6.49902 64.8359 6.7998 65.3691 7.40137C65.9023 7.99837 66.1689 8.80729 66.1689 9.82812C66.1689 10.8535 65.891 11.6624 65.335 12.2549C64.7835 12.8428 64.0111 13.1367 63.0176 13.1367C62.138 13.1367 61.4202 12.8929 60.8643 12.4053C60.3083 11.9176 59.9915 11.2432 59.9141 10.3818H61.1104C61.1878 10.9515 61.3906 11.3822 61.7188 11.6738C62.0469 11.9609 62.4798 12.1045 63.0176 12.1045C63.6055 12.1045 64.0658 11.904 64.3984 11.5029C64.7357 11.1019 64.9043 10.5482 64.9043 9.8418C64.9043 9.17643 64.722 8.64323 64.3574 8.24219C63.9974 7.83659 63.5166 7.63379 62.915 7.63379C62.3636 7.63379 61.9307 7.75456 61.6162 7.99609L61.2812 8.26953L60.2695 8.00977Z" fill="#A9A9A9"/>
<path d="M12.8994 13.0136C12.8994 9.69246 15.5968 7 18.9246 7C22.2518 7 24.9495 9.69246 24.9495 13.0136C24.9495 16.3348 22.2518 19.0272 18.9246 19.0272C15.5968 19.0272 12.8994 16.3348 12.8994 13.0136ZM21.8199 23.1242C21.8803 21.8147 22.332 20.6028 23.0585 19.6008C22.5486 19.4942 22.0216 19.4376 21.4808 19.4376H16.369C15.8298 19.4376 15.3035 19.4938 14.7962 19.5991C15.5694 20.6695 16.0319 21.9769 16.0394 23.3922C16.9793 22.8762 18.0577 22.5824 19.2032 22.5824C20.1324 22.5824 21.0169 22.7757 21.8199 23.1242ZM22.8398 23.664C24.5898 24.7594 25.8169 26.6122 26.0414 28.7638C26.7545 29.0965 27.5469 29.2884 28.3863 29.2884C31.4522 29.2884 33.9371 26.8077 33.9371 23.7476C33.9371 20.6871 31.4522 18.207 28.3863 18.207C25.3486 18.2071 22.8859 20.6432 22.8398 23.664ZM19.2031 35.009C22.2684 35.009 24.7535 32.5276 24.7535 29.4684C24.7535 26.4087 22.2684 23.9278 19.2031 23.9278C16.1375 23.9278 13.6513 26.4086 13.6513 29.4684C13.6514 32.5276 16.1375 35.009 19.2031 35.009ZM21.5577 35.3861H16.8481C12.9292 35.3861 9.74034 38.5689 9.74034 42.481V48.231L9.75533 48.321L10.1518 48.4441C13.8918 49.61 17.1411 50 19.8157 50C25.0386 50 28.0671 48.5134 28.2537 48.4183L28.6246 48.2309H28.664V42.481C28.6641 38.5689 25.477 35.3861 21.5577 35.3861ZM30.7422 29.6665H26.0679C26.0171 31.5334 25.2189 33.2145 23.9566 34.4229C27.4401 35.4569 29.9888 38.6811 29.9888 42.4898V44.2615C34.603 44.0919 37.2626 42.7873 37.4377 42.6993L37.8088 42.511H37.8481V36.76C37.8487 32.8489 34.66 29.6665 30.7422 29.6665ZM31.9916 18.0888C33.7417 19.1844 34.9688 21.0373 35.1927 23.1889C35.9059 23.5215 36.6982 23.7131 37.5377 23.7131C40.6041 23.7131 43.0889 21.2328 43.0889 18.1731C43.0889 15.1126 40.604 12.6325 37.5377 12.6325C34.5004 12.6321 32.0378 15.0688 31.9916 18.0888ZM39.893 24.0913H35.2196C35.1689 25.9582 34.3708 27.6393 33.1084 28.8476C36.5918 29.8813 39.1406 33.1059 39.1406 36.9146V38.6863C43.7544 38.5171 46.4144 37.2126 46.5896 37.124L46.9601 36.9363H47V31.1846C47.0005 27.2739 43.8119 24.0913 39.893 24.0913ZM9.46337 29.2885C10.5493 29.2885 11.5591 28.9718 12.4154 28.4328C12.6877 26.6615 13.6392 25.1132 14.9978 24.0593C15.0035 23.9553 15.013 23.8527 15.013 23.7477C15.013 20.6872 12.5273 18.2071 9.46337 18.2071C6.39676 18.2071 3.91214 20.6871 3.91214 23.7477C3.91214 26.8083 6.39668 29.2885 9.46337 29.2885ZM14.4484 34.4229C13.1919 33.2203 12.3965 31.5483 12.3379 29.6923C12.1651 29.6795 11.9935 29.6665 11.8168 29.6665H7.10772C3.18839 29.6665 0 32.8489 0 36.7605V42.511L0.014554 42.6005L0.411546 42.7241C3.41126 43.6604 6.08946 44.0907 8.41557 44.2252V42.4892C8.41601 38.6811 10.9641 35.4564 14.4484 34.4229Z" fill="#F8D465"/>
</svg>
