<svg viewBox="0 0 62 49" fill="none" xmlns="http://www.w3.org/2000/svg">
<circle cx="37.6309" cy="15" r="15" fill="black"/>
<path d="M1.7895 36.9861V15.1928C1.7895 13.9818 2.76692 13 3.97275 13H25.6602C26.866 13 27.8434 13.9818 27.8434 15.1928V36.9862C27.8434 37.3899 27.5177 37.7171 27.1157 37.7171H2.51725C2.11525 37.7171 1.7895 37.3899 1.7895 36.9861ZM19.3028 44.4521C19.3028 46.9638 17.2754 49 14.7747 49C12.2739 49 10.2465 46.9638 10.2465 44.4521C10.2465 41.9402 12.2739 39.9041 14.7747 39.9041C17.2754 39.9041 19.3028 41.9402 19.3028 44.4521ZM17.0387 44.4521C17.0387 43.1962 16.025 42.1781 14.7746 42.1781C13.5242 42.1781 12.5104 43.1962 12.5104 44.4521C12.5104 45.7079 13.5242 46.7261 14.7746 46.7261C16.025 46.7261 17.0387 45.7079 17.0387 44.4521ZM10.8746 39.9041H0.72775C0.325833 39.9041 0 40.2313 0 40.635V42.8525C0 43.2562 0.325833 43.5835 0.72775 43.5835H8.86092C9.07325 42.1201 9.80867 40.8275 10.8746 39.9041ZM42.9948 44.4521C42.9948 46.9638 40.9674 49 38.4667 49C35.9658 49 33.9385 46.9638 33.9385 44.4521C33.9385 41.9402 35.9658 39.9041 38.4667 39.9041C40.9674 39.9041 42.9948 41.9402 42.9948 44.4521ZM40.7308 44.4521C40.7308 43.1962 39.7171 42.1781 38.4667 42.1781C37.2162 42.1781 36.2026 43.1962 36.2026 44.4521C36.2026 45.7079 37.2163 46.7261 38.4667 46.7261C39.7171 46.7261 40.7308 45.7079 40.7308 44.4521ZM51 40.635V42.8525C51 43.2562 50.6742 43.5835 50.2723 43.5835H44.3802C43.9588 40.6806 41.4714 38.4422 38.4668 38.4422C35.4617 38.4422 32.9742 40.6807 32.5527 43.5835H20.6884C20.476 42.1202 19.7407 40.8275 18.6747 39.9041H29.9242V18.9973C29.9242 18.19 30.5759 17.5355 31.3798 17.5355H38.2502C40.1847 17.5355 41.9927 18.5006 43.0752 20.1108L47.5043 26.6995C48.154 27.666 48.5012 28.8054 48.5012 29.9716V39.9041H50.2723C50.6742 39.9041 51 40.2313 51 40.635ZM43.6173 26.8683L40.0756 21.8135C39.9393 21.619 39.7173 21.5033 39.4804 21.5033H33.9558C33.554 21.5033 33.2281 21.8305 33.2281 22.2342V27.2889C33.2281 27.6927 33.5539 28.0198 33.9558 28.0198H43.0223C43.6118 28.0198 43.9567 27.3525 43.6173 26.8683Z" fill="#F8D465"/>
<path d="M53.0684 8.75488C53.0684 10.236 52.8154 11.3366 52.3096 12.0566C51.8037 12.7767 51.013 13.1367 49.9375 13.1367C48.8757 13.1367 48.0895 12.7858 47.5791 12.084C47.0687 11.3776 46.8044 10.3249 46.7861 8.92578V7.2373C46.7861 5.77441 47.0391 4.6875 47.5449 3.97656C48.0508 3.26562 48.8438 2.91016 49.9238 2.91016C50.9948 2.91016 51.7832 3.25423 52.2891 3.94238C52.7949 4.62598 53.0547 5.68327 53.0684 7.11426V8.75488ZM51.8037 7.02539C51.8037 5.95443 51.6533 5.17513 51.3525 4.6875C51.0518 4.19531 50.5755 3.94922 49.9238 3.94922C49.2767 3.94922 48.805 4.19303 48.5088 4.68066C48.2126 5.16829 48.0599 5.91797 48.0508 6.92969V8.95312C48.0508 10.0286 48.2057 10.8239 48.5156 11.3389C48.8301 11.8493 49.304 12.1045 49.9375 12.1045C50.5618 12.1045 51.0244 11.863 51.3252 11.3799C51.6305 10.8968 51.79 10.1357 51.8037 9.09668V7.02539ZM59.6514 3.04004V4.11328H59.4189C58.4346 4.13151 57.6507 4.42318 57.0674 4.98828C56.484 5.55339 56.1468 6.34863 56.0557 7.37402C56.5798 6.77246 57.2952 6.47168 58.2021 6.47168C59.068 6.47168 59.7585 6.77702 60.2734 7.3877C60.793 7.99837 61.0527 8.78678 61.0527 9.75293C61.0527 10.7783 60.7725 11.5986 60.2119 12.2139C59.6559 12.8291 58.9085 13.1367 57.9697 13.1367C57.0173 13.1367 56.2448 12.7721 55.6523 12.043C55.0599 11.3092 54.7637 10.3659 54.7637 9.21289V8.72754C54.7637 6.89551 55.1533 5.49642 55.9326 4.53027C56.7165 3.55957 57.8809 3.06283 59.4258 3.04004H59.6514ZM57.9902 7.52441C57.5573 7.52441 57.1585 7.6543 56.7939 7.91406C56.4294 8.17383 56.1764 8.49967 56.0352 8.8916V9.35645C56.0352 10.1768 56.2197 10.8376 56.5889 11.3389C56.958 11.8402 57.4183 12.0908 57.9697 12.0908C58.5394 12.0908 58.986 11.8812 59.3096 11.4619C59.6377 11.0426 59.8018 10.4935 59.8018 9.81445C59.8018 9.13086 59.6354 8.57943 59.3027 8.16016C58.9746 7.73633 58.5371 7.52441 57.9902 7.52441Z" fill="#A9A9A9"/>
</svg>
