<svg viewBox="0 0 50 102" fill="none" xmlns="http://www.w3.org/2000/svg">
<circle cx="25" cy="77" r="25" fill="#FBFCFE"/>
<circle cx="25" cy="32" r="15" fill="#FBFCFE"/>
<circle cx="25" cy="5" r="5" fill="#FBFCFE"/>
<path d="M33.3752 82.1613C33.7161 81.8344 33.7161 81.2902 33.3752 80.9518C33.0458 80.6248 32.4976 80.6248 32.169 80.9518L25.9908 87.0848V66.8467C25.99 66.375 25.6123 66 25.137 66C24.6618 66 24.2717 66.375 24.2717 66.8467V87.0848L18.105 80.9518C17.7641 80.6248 17.2151 80.6248 16.8865 80.9518C16.5456 81.2902 16.5456 81.8351 16.8865 82.1613L24.5274 89.7462C24.8568 90.0846 25.405 90.0846 25.7336 89.7462L33.3752 82.1613Z" fill="#575757"/>
</svg>
