<svg width="51" height="102" viewBox="0 0 51 102" fill="none" xmlns="http://www.w3.org/2000/svg">
<circle cx="25.6309" cy="77" r="25" fill="#A1BBDF"/>
<circle cx="26.6309" cy="32" r="15" fill="#A1BBDF"/>
<circle cx="27.6309" cy="5" r="5" fill="#A1BBDF"/>
<path d="M34.3752 82.1613C34.7161 81.8344 34.7161 81.2902 34.3752 80.9518C34.0458 80.6248 33.4976 80.6248 33.169 80.9518L26.9908 87.0848V66.8467C26.99 66.375 26.6123 66 26.137 66C25.6618 66 25.2717 66.375 25.2717 66.8467V87.0848L19.105 80.9518C18.7641 80.6248 18.2151 80.6248 17.8865 80.9518C17.5456 81.2902 17.5456 81.8351 17.8865 82.1613L25.5274 89.7462C25.8568 90.0846 26.405 90.0846 26.7336 89.7462L34.3752 82.1613Z" fill="black"/>
</svg>
