<svg viewBox="0 0 22 19" fill="none" xmlns="http://www.w3.org/2000/svg">
<path d="M21.4399 13.0444C21.1307 13.0444 20.8799 13.2909 20.8799 13.5948V15.6978C20.8799 16.9116 19.8749 17.8991 18.6397 17.8991H3.36029C2.12506 17.8991 1.12011 16.9116 1.12011 15.6978V13.5948C1.12011 13.2909 0.869387 13.0444 0.560055 13.0444C0.250723 13.0444 0 13.2909 0 13.5948V15.6978C0 17.5185 1.50743 18.9999 3.36029 18.9999H18.6397C20.4926 18.9999 22 17.5185 22 15.6978V13.5948C22 13.2909 21.7493 13.0444 21.4399 13.0444Z" fill="black"/>
<path d="M18.0396 15.2129H3.9602C3.65095 15.2129 3.40015 15.4594 3.40015 15.7632C3.40015 16.0671 3.65087 16.3136 3.9602 16.3136H18.0396C18.3489 16.3136 18.5996 16.0672 18.5996 15.7632C18.5996 15.4594 18.3489 15.2129 18.0396 15.2129Z" fill="black"/>
<path d="M16.668 7.47023C16.4619 7.24361 16.1079 7.2239 15.8772 7.4264L11.5596 11.2167V0.550357C11.5596 0.246466 11.3088 0 10.9995 0C10.6903 0 10.4395 0.246381 10.4395 0.550357V11.2167L6.12187 7.42645C5.89126 7.22394 5.5372 7.2437 5.33108 7.47028C5.12508 7.69698 5.14498 8.04491 5.37563 8.24738L10.0667 12.3654C10.3326 12.5989 10.6659 12.7156 10.9995 12.7156C11.3329 12.7156 11.6663 12.5989 11.9322 12.3656L16.6233 8.24738C16.854 8.04479 16.874 7.69685 16.668 7.47023Z" fill="black"/>
</svg>
