<svg viewBox="0 0 59 59" fill="none" xmlns="http://www.w3.org/2000/svg">
<circle cx="29.5" cy="29.4995" r="29.054" transform="rotate(90.8864 29.5 29.4995)" fill="#A1BBDF"/>
<path d="M25.6691 39.5696C26.0429 39.9716 26.6753 39.9814 27.0746 39.5913C27.4605 39.2145 27.4703 38.5775 27.0963 38.1897L20.0807 30.9002L43.5978 31.264C44.146 31.2716 44.5885 30.8394 44.597 30.2872C44.6056 29.7349 44.1769 29.275 43.6287 29.2665L20.1116 28.9026L27.3491 21.847C27.7352 21.4568 27.7451 20.8189 27.371 20.4311C26.984 20.0289 26.3507 20.0191 25.9655 20.4094L17.0144 29.1519C16.6152 29.5285 16.6054 30.1656 16.9927 30.5535L25.6691 39.5696Z" fill="#575757"/>
</svg>
