<svg viewBox="0 0 58 58" fill="none" xmlns="http://www.w3.org/2000/svg">
<circle cx="29" cy="29.0001" r="28.5616" transform="rotate(90.8864 29 29.0001)" fill="#2B2B2B"/>
<path d="M34.8875 20.1358C34.514 19.7464 33.8923 19.7464 33.5057 20.1358C33.1322 20.5121 33.1322 21.1384 33.5057 21.5138L40.5124 28.5723H17.3912C16.8522 28.5732 16.4238 29.0047 16.4238 29.5477C16.4238 30.0906 16.8522 30.5362 17.3912 30.5362H40.5124L33.5057 37.5815C33.1322 37.971 33.1322 38.5981 33.5057 38.9735C33.8923 39.363 34.5149 39.363 34.8875 38.9735L43.553 30.2441C43.9396 29.8678 43.9396 29.2415 43.553 28.8661L34.8875 20.1358Z" fill="#F2F2F2"/>
</svg>
