<svg viewBox="0 0 58 58" fill="none" xmlns="http://www.w3.org/2000/svg">
<circle cx="29" cy="28.9999" r="28.5616" transform="rotate(-89.1136 29 28.9999)" fill="#2B2B2B"/>
<path d="M23.1125 37.8642C23.486 38.2536 24.1077 38.2536 24.4943 37.8642C24.8678 37.4879 24.8678 36.8616 24.4943 36.4862L17.4876 29.4277L40.6088 29.4277C41.1478 29.4268 41.5762 28.9953 41.5762 28.4523C41.5762 27.9094 41.1478 27.4638 40.6088 27.4638L17.4876 27.4638L24.4943 20.4185C24.8678 20.029 24.8678 19.4019 24.4943 19.0265C24.1077 18.637 23.4851 18.637 23.1125 19.0265L14.447 27.7559C14.0604 28.1322 14.0604 28.7585 14.447 29.1339L23.1125 37.8642Z" fill="#F2F2F2"/>
</svg>
