<svg viewBox="0 0 59 59" fill="none" xmlns="http://www.w3.org/2000/svg">
<circle cx="29.5" cy="29.5005" r="29.054" transform="rotate(-89.1136 29.5 29.5005)" fill="#A1BBDF"/>
<path d="M33.3309 19.4304C32.9571 19.0284 32.3247 19.0186 31.9254 19.4087C31.5395 19.7855 31.5297 20.4225 31.9037 20.8103L38.9193 28.0998L15.4022 27.736C14.854 27.7284 14.4115 28.1606 14.403 28.7128C14.3944 29.2651 14.8231 29.725 15.3713 29.7335L38.8884 30.0974L31.6509 37.153C31.2648 37.5432 31.2549 38.1811 31.629 38.5689C32.016 38.9711 32.6493 38.9809 33.0344 38.5906L41.9856 29.8481C42.3848 29.4715 42.3946 28.8345 42.0073 28.4465L33.3309 19.4304Z" fill="#575757"/>
</svg>
